<?xml version="1.0" standalone="no"?>
  <svg version="1.1"
      baseProfile="full"
     width="889px"
      height="698px"
     
      xmlns="http://www.w3.org/2000/svg"
      >
      <g xmlns="http://www.w3.org/2000/svg" xmlns:xlink="http://www.w3.org/1999/xlink">
      <g transform="rotate(0 437 340.9324375)"><svg xmlns:dc="http://purl.org/dc/elements/1.1/" xmlns:cc="http://creativecommons.org/ns#" xmlns:rdf="http://www.w3.org/1999/02/22-rdf-syntax-ns#" xmlns:svg="http://www.w3.org/2000/svg" xmlns="http://www.w3.org/2000/svg" xmlns:sodipodi="http://sodipodi.sourceforge.net/DTD/sodipodi-0.dtd" xmlns:inkscape="http://www.inkscape.org/namespaces/inkscape" version="1.1" id="Layer_1" x="286.5" y="188.57" viewBox="123.19999694824219 123.19999694824219 753.5999755859375 753.5999755859375" width="301" height="304.724875" style="enable-background:new 0 0 1000 1000;" xml:space="preserve" class="withFill injected-svg" data-src="/static/media/31.svg" xmlns:xlink="http://www.w3.org/1999/xlink" fill="rgb(10, 20, 30)" opacity="1" preserveAspectRatio="none"><style type="text/css" id="style3">
	.st0{fill:#9E9E9E;}
</style><switch id="switch5" transform="translate(-56.8,0)"><g id="g7"><g id="g9"><g id="g11"><path d="M 556.8,876.8 C 349,876.8 180,707.8 180,500 180,292.2 349,123.2 556.8,123.2 c 207.8,0 376.8,169 376.8,376.8 0,207.8 -169,376.8 -376.8,376.8 z m 0,-745.1 c -203.1,0 -368.3,165.2 -368.3,368.3 0,203.1 165.2,368.3 368.3,368.3 203.1,0 368.3,-165.2 368.3,-368.3 0,-203.1 -165.2,-368.3 -368.3,-368.3 z" id="path13-26570" inkscape:connector-curvature="0"></path></g><g id="g15"><path d="M 556.8,819.5 C 380.6,819.5 237.3,676.2 237.3,500 237.3,323.8 380.6,180.5 556.8,180.5 733,180.5 876.3,323.8 876.3,500 876.3,676.2 733,819.5 556.8,819.5 Z m 0,-634.7 C 383,184.8 241.6,326.2 241.6,500 241.6,673.8 383,815.2 556.8,815.2 730.6,815.2 872,673.8 872,500 872,326.2 730.6,184.8 556.8,184.8 Z" id="path17-26571" inkscape:connector-curvature="0"></path></g><g id="g19"><path d="M 556.8,809.4 C 386.2,809.4 247.4,670.6 247.4,500 c 0,-170.6 138.8,-309.4 309.4,-309.4 170.6,0 309.4,138.8 309.4,309.4 0,170.6 -138.8,309.4 -309.4,309.4 z m 0,-616.6 c -169.4,0 -307.2,137.8 -307.2,307.2 0,169.4 137.8,307.2 307.2,307.2 169.4,0 307.3,-137.8 307.3,-307.2 0,-169.4 -137.9,-307.2 -307.3,-307.2 z" id="path21-26572" inkscape:connector-curvature="0"></path></g><g id="g23"><g id="g25"><path class="st0" d="m 897.7,545 c -5.9,-0.8 -12,0.3 -16.9,3.1 -4.9,2.9 -8.8,7.5 -10,14.3 -1.3,6.8 0.2,12.4 3.8,17 3.6,4.5 8.7,7.8 14.5,9.4 5.7,1.5 12.1,1.3 17.3,-1.4 5.2,-2.7 9.6,-7.9 11.1,-15.7 1.4,-7.8 -0.4,-14.2 -4.3,-18.7 -3.9,-4.6 -9.6,-7.2 -15.5,-8 z" id="path27-26573" inkscape:connector-curvature="0" style="fill: rgb(10, 20, 30);"></path></g><g id="g29"><path class="st0" d="m 829.6,709.4 c -4.7,-3.6 -10.6,-5.8 -16.2,-5.8 -2.9,0 -5.6,0.6 -8.3,1.8 -2.7,1.1 -5.3,2.9 -7.5,5.6 -2.2,2.6 -3.7,5.4 -4.6,8.2 -0.9,2.8 -1,5.6 -0.6,8.5 0.8,5.7 3.7,11.2 7.9,15.4 4.2,4.2 9.7,7.1 15.6,7.3 2.9,0.1 6,-0.4 9,-1.6 3,-1.2 5.9,-3.4 8.5,-6.4 2.6,-3 4.3,-6.1 5.3,-9.2 0.9,-3.1 0.9,-6.2 0.4,-9.2 -1.3,-5.8 -4.8,-10.9 -9.5,-14.6 z" id="path31-26574" inkscape:connector-curvature="0" style="fill: rgb(10, 20, 30);"></path></g><g id="g33"><path class="st0" d="m 677.1,804.7 c -2.5,-1.4 -5.2,-2.4 -8.1,-2.6 -2.9,-0.2 -6,-0.1 -9.3,1.1 -3.3,1.1 -5.9,2.8 -8,4.8 -2.1,2 -3.7,4.3 -4.8,7 -2.2,5.3 -2.4,11.5 -0.9,17.3 1.5,5.7 4.9,11 9.9,14.2 2.5,1.6 5.4,2.7 8.6,3.2 3.2,0.4 6.7,-0.1 10.5,-1.3 3.8,-1.3 6.8,-3 9.1,-5.3 2.3,-2.3 3.9,-4.9 4.9,-7.7 2,-5.6 1.5,-11.8 -0.8,-17.3 -2.1,-5.7 -6.1,-10.6 -11.1,-13.4 z" id="path35-26575" inkscape:connector-curvature="0" style="fill: rgb(10, 20, 30);"></path></g><g id="g37"><path class="st0" d="m 494.4,814 c -6.8,-1.3 -12.4,0.2 -17,3.8 -4.5,3.6 -7.8,8.7 -9.4,14.5 -1.5,5.7 -1.3,12.1 1.4,17.3 2.7,5.2 7.9,9.6 15.7,11.1 7.8,1.4 14.2,-0.4 18.7,-4.3 4.5,-3.9 7.2,-9.6 7.9,-15.5 0.8,-5.9 -0.3,-12 -3.1,-16.9 -2.8,-4.8 -7.4,-8.8 -14.2,-10 z" id="path39-26576" inkscape:connector-curvature="0" style="fill: rgb(10, 20, 30);"></path></g><g id="g41"><path class="st0" d="m 347.4,772.7 c 3.6,-4.7 5.8,-10.6 5.8,-16.2 0,-2.9 -0.6,-5.6 -1.8,-8.3 -1.1,-2.7 -2.9,-5.3 -5.6,-7.5 -2.6,-2.3 -5.4,-3.7 -8.1,-4.6 -2.8,-0.9 -5.6,-1 -8.5,-0.6 -5.7,0.8 -11.2,3.7 -15.4,7.9 -4.2,4.2 -7.1,9.7 -7.3,15.6 -0.1,2.9 0.4,6 1.6,9 1.2,3 3.4,5.9 6.4,8.5 3,2.6 6.1,4.3 9.2,5.3 3.1,0.9 6.2,0.9 9.2,0.4 5.8,-1.2 10.9,-4.7 14.5,-9.5 z" id="path43-26577" inkscape:connector-curvature="0" style="fill: rgb(10, 20, 30);"></path></g><g id="g45"><path class="st0" d="m 239,631.5 c 5.5,-2.3 10.3,-6.3 13.2,-11.2 1.4,-2.5 2.4,-5.2 2.6,-8.1 0.2,-2.9 0.1,-6 -1.1,-9.3 -1.1,-3.3 -2.8,-5.9 -4.8,-8 -2,-2.1 -4.3,-3.7 -7,-4.8 -5.3,-2.2 -11.5,-2.4 -17.3,-0.9 -5.7,1.5 -11,4.9 -14.2,9.9 -1.6,2.5 -2.7,5.4 -3.2,8.6 -0.4,3.2 0.1,6.7 1.3,10.5 1.3,3.8 3,6.8 5.3,9.1 2.3,2.3 4.9,3.9 7.7,4.9 5.8,2.1 12,1.6 17.5,-0.7 z" id="path47-26578" inkscape:connector-curvature="0" style="fill: rgb(10, 20, 30);"></path></g><g id="g49"><path class="st0" d="m 215.9,455 c 5.9,0.8 12,-0.3 16.9,-3.1 4.9,-2.9 8.8,-7.5 10,-14.3 1.3,-6.8 -0.2,-12.4 -3.8,-17 -3.6,-4.5 -8.7,-7.8 -14.5,-9.4 -5.7,-1.5 -12.1,-1.3 -17.3,1.4 -5.2,2.7 -9.6,7.9 -11.1,15.7 -1.4,7.8 0.4,14.2 4.3,18.7 4,4.6 9.6,7.2 15.5,8 z" id="path51-26579" inkscape:connector-curvature="0" style="fill: rgb(10, 20, 30);"></path></g><g id="g53"><path class="st0" d="m 284.1,290.6 c 4.7,3.6 10.6,5.8 16.2,5.8 2.9,0 5.6,-0.6 8.3,-1.8 2.7,-1.1 5.3,-2.9 7.5,-5.6 2.2,-2.6 3.7,-5.4 4.6,-8.2 0.9,-2.8 1,-5.6 0.6,-8.5 -0.8,-5.7 -3.7,-11.2 -7.9,-15.4 -4.2,-4.2 -9.7,-7.1 -15.6,-7.3 -2.9,-0.1 -6,0.4 -9,1.6 -3,1.2 -5.9,3.4 -8.5,6.4 -2.6,3 -4.3,6.1 -5.3,9.2 -0.9,3.1 -0.9,6.2 -0.4,9.2 1.2,5.8 4.8,10.9 9.5,14.6 z" id="path55-26580" inkscape:connector-curvature="0" style="fill: rgb(10, 20, 30);"></path></g><g id="g57"><path class="st0" d="m 436.5,195.3 c 2.5,1.4 5.2,2.4 8.1,2.6 2.9,0.2 6,0.1 9.3,-1.1 3.3,-1.1 5.9,-2.8 8,-4.8 2.1,-2 3.7,-4.3 4.8,-7 2.2,-5.3 2.4,-11.5 0.9,-17.3 -1.5,-5.7 -4.9,-11 -9.9,-14.2 -2.5,-1.6 -5.4,-2.7 -8.6,-3.2 -3.2,-0.4 -6.7,0.1 -10.5,1.3 -3.8,1.3 -6.8,3 -9.1,5.3 -2.3,2.3 -3.9,4.9 -4.9,7.7 -2,5.6 -1.5,11.8 0.8,17.3 2.2,5.7 6.2,10.6 11.1,13.4 z" id="path59-26581" inkscape:connector-curvature="0" style="fill: rgb(10, 20, 30);"></path></g><g id="g61"><path class="st0" d="m 619.3,186 c 6.8,1.3 12.4,-0.2 17,-3.8 4.5,-3.6 7.8,-8.7 9.4,-14.5 1.5,-5.7 1.3,-12.1 -1.4,-17.3 -2.7,-5.2 -7.9,-9.6 -15.7,-11.1 -7.8,-1.4 -14.2,0.4 -18.7,4.3 -4.5,3.9 -7.2,9.6 -7.9,15.5 -0.8,5.9 0.3,12 3.1,16.9 2.8,4.8 7.4,8.8 14.2,10 z" id="path63-26582" inkscape:connector-curvature="0" style="fill: rgb(10, 20, 30);"></path></g><g id="g65"><path class="st0" d="m 766.3,227.3 c -3.6,4.7 -5.8,10.6 -5.8,16.2 0,2.9 0.6,5.6 1.8,8.3 1.1,2.7 2.9,5.3 5.6,7.5 2.6,2.3 5.4,3.7 8.1,4.6 2.8,0.9 5.6,1 8.5,0.6 5.7,-0.8 11.2,-3.7 15.4,-7.9 4.2,-4.2 7.1,-9.7 7.3,-15.6 0.1,-2.9 -0.4,-6 -1.6,-9 -1.2,-3 -3.4,-5.9 -6.4,-8.5 -3,-2.6 -6.1,-4.3 -9.2,-5.3 -3.1,-0.9 -6.2,-0.9 -9.2,-0.4 -5.8,1.2 -10.9,4.8 -14.5,9.5 z" id="path67-26583" inkscape:connector-curvature="0" style="fill: rgb(10, 20, 30);"></path></g><g id="g69"><path class="st0" d="m 874.7,368.5 c -5.5,2.3 -10.3,6.3 -13.2,11.2 -1.4,2.5 -2.4,5.2 -2.6,8.1 -0.2,2.9 -0.1,6 1.1,9.3 1.1,3.3 2.8,5.9 4.8,8 2,2.1 4.3,3.7 7,4.8 5.3,2.2 11.5,2.4 17.3,0.9 5.7,-1.5 11,-4.9 14.2,-9.9 1.6,-2.5 2.7,-5.4 3.2,-8.6 0.4,-3.2 -0.1,-6.7 -1.3,-10.5 -1.3,-3.8 -3,-6.8 -5.3,-9.1 -2.3,-2.3 -4.9,-3.9 -7.7,-4.9 -5.8,-2.1 -12,-1.6 -17.5,0.7 z" id="path71-26584" inkscape:connector-curvature="0" style="fill: rgb(10, 20, 30);"></path></g><g id="g73"><path class="st0" d="m 889,589.1 c -5.7,-1.5 -12,-1.3 -17.1,0.9 -5.2,2.2 -9.7,6.2 -11.8,12.8 -2.2,6.5 -1.4,12.4 1.6,17.3 2.8,4.6 6.9,8.3 12,10.6 -5.2,-1.9 -10.8,-2.2 -16,-0.9 -2.8,0.7 -5.4,2 -7.6,3.8 -2.3,1.8 -4.1,4.3 -5.7,7.4 -1.6,3.1 -2.3,6.1 -2.3,9 0,1.5 0.1,2.9 0.4,4.3 0.3,1.4 0.7,2.7 1.2,4 2.1,5.2 6.4,9.8 11.5,12.8 5.2,3 11.2,4.3 17.1,3.1 1.5,-0.3 2.9,-0.8 4.3,-1.4 1.4,-0.7 2.7,-1.5 3.9,-2.5 2.5,-2 4.8,-4.8 6.6,-8.3 1.9,-3.5 2.5,-7.1 2.6,-10.3 0,-3.2 -0.6,-6.2 -1.9,-8.9 -2.3,-4.9 -6.7,-8.8 -11.7,-11.1 5.2,1.9 11,2.3 16.1,0.4 5.5,-2 10.5,-6.5 13.1,-14.1 2.4,-7.6 1.5,-14.1 -1.8,-19.1 -3.5,-4.9 -8.8,-8.3 -14.5,-9.8 z" id="path75-26585" inkscape:connector-curvature="0" style="fill: rgb(10, 20, 30);"></path></g><g id="g77"><path class="st0" d="m 854.9,671.6 c -5.2,-3 -11.1,-4.3 -16.9,-3.6 -2.8,0.4 -5.6,1.3 -8.1,2.8 -2.5,1.5 -4.6,3.8 -6.6,6.6 -2,2.8 -3.1,5.7 -3.5,8.7 -0.2,1.5 -0.2,2.9 -0.1,4.3 0.1,1.4 0.3,2.8 0.7,4.2 1.4,5.5 5,10.5 9.8,14.2 4.8,3.7 10.6,5.7 16.5,5.3 1.5,-0.1 3,-0.4 4.4,-0.8 1.4,-0.5 2.8,-1.1 4.2,-2 2.7,-1.7 5.3,-4.1 7.6,-7.4 2.3,-3.2 3.4,-6.7 3.9,-9.9 0.5,-3.2 0.2,-6.3 -0.7,-9.1 -1.7,-5.7 -6,-10.3 -11.2,-13.3 z" id="path79-26586" inkscape:connector-curvature="0" style="fill: rgb(10, 20, 30);"></path></g><g id="g81"><path class="st0" d="m 784.6,735.4 c -2.8,-0.4 -5.6,-0.2 -8.4,0.7 -2.8,0.8 -5.6,2.2 -8.2,4.5 -2.6,2.3 -4.3,4.9 -5.6,7.5 -1.2,2.6 -1.7,5.5 -1.7,8.3 0,5.4 2,10.9 5.2,15.4 -3.6,-4.3 -8.3,-7.5 -13.5,-8.9 -5.6,-1.5 -11.5,-0.9 -17.2,3 -5.8,3.7 -8.6,9.1 -9.3,14.7 -0.8,5.6 0.6,11.6 3.6,16.8 3,5.1 7.6,9.4 13.3,11.2 5.6,1.8 12.2,1 18.9,-3.3 6.5,-4.5 9.6,-10.5 10.2,-16.3 0.4,-5.6 -1.5,-11.1 -4.7,-15.6 3.6,4.3 8.4,7.5 13.8,8.5 2.9,0.5 6,0.4 9.1,-0.4 3.2,-0.8 6.3,-2.6 9.2,-5.2 3,-2.6 5.1,-5.5 6.4,-8.4 1.3,-3 1.7,-6.1 1.6,-9 -0.3,-5.9 -3.2,-11.5 -7.4,-15.7 -4.2,-4.2 -9.7,-7.1 -15.3,-7.8 z" id="path83-26587" inkscape:connector-curvature="0" style="fill: rgb(10, 20, 30);"></path></g><g id="g85"><path class="st0" d="m 716.4,786.1 c -5.3,-2.2 -11.3,-2.4 -17.4,0.8 -6.3,2.9 -9.7,7.9 -11.1,13.4 -1.5,5.4 -0.9,11.6 1.4,17.1 2.3,5.5 6.3,10.3 11.7,12.9 5.3,2.5 12,2.6 19.2,-0.8 7.1,-3.6 10.9,-9.1 12.2,-14.8 1.2,-5.8 -0.2,-12 -3.2,-17.1 -3,-5.2 -7.6,-9.3 -12.8,-11.5 z" id="path87-26588" inkscape:connector-curvature="0" style="fill: rgb(10, 20, 30);"></path></g><g id="g89"><path class="st0" d="m 636.4,817.8 c -2.3,-1.7 -4.8,-3 -7.6,-3.6 -2.8,-0.6 -6,-0.9 -9.4,-0.2 -3.4,0.7 -6.2,2 -8.6,3.7 -2.4,1.7 -4.2,3.8 -5.7,6.3 -2.6,4.6 -3.7,10.2 -3.2,15.7 -1,-5.5 -3.4,-10.6 -7.2,-14.4 -4,-3.9 -9.5,-6.5 -16.4,-6 -1.7,0.1 -3.3,0.4 -4.8,0.9 -1.5,0.4 -2.9,0.9 -4.2,1.6 -2.6,1.4 -4.7,3.3 -6.4,5.6 -3.5,4.6 -5.3,10.5 -5.3,16.5 0,5.9 1.9,11.8 5.9,16.2 2,2.2 4.5,4 7.5,5.2 1.5,0.6 3.1,1.1 4.9,1.4 1.8,0.2 3.6,0.3 5.6,0.1 7.9,-0.6 13.6,-4 17,-9 3.1,-4.6 4.3,-10.2 3.8,-15.7 1,5.5 3.5,10.6 7.7,14.2 2.3,1.9 5,3.4 8.1,4.2 3.1,0.8 6.7,0.8 10.6,0 3.9,-0.8 7.2,-2.1 9.8,-4.1 2.6,-2 4.5,-4.4 5.9,-7 2.7,-5.3 3,-11.5 1.4,-17.2 -1.6,-5.7 -4.9,-11 -9.4,-14.4 z" id="path91-26589" inkscape:connector-curvature="0" style="fill: rgb(10, 20, 30);"></path></g><g id="g93"><path class="st0" d="m 536.5,819.4 c -1.7,-0.1 -3.4,0 -4.9,0.3 -1.5,0.2 -3,0.5 -4.3,1.1 -2.7,1 -5.1,2.6 -7.1,4.7 -4,4.1 -6.6,9.8 -7.4,15.7 -0.8,5.9 0.3,12 3.7,16.8 1.7,2.4 3.9,4.5 6.8,6.1 1.4,0.8 3,1.5 4.7,2 1.7,0.4 3.6,0.7 5.5,0.8 7.9,0.4 14,-2.1 18,-6.7 4,-4.4 5.9,-10.4 5.9,-16.3 0,-5.9 -1.8,-11.9 -5.3,-16.4 -3.6,-4.4 -8.7,-7.7 -15.6,-8.1 z" id="path95-26590" inkscape:connector-curvature="0" style="fill: rgb(10, 20, 30);"></path></g><g id="g97"><path class="st0" d="m 466.8,815 c -2.2,-5.2 -6.2,-9.7 -12.8,-11.8 -6.5,-2.2 -12.4,-1.4 -17.3,1.6 -4.6,2.8 -8.3,6.9 -10.6,12 1.9,-5.2 2.2,-10.8 0.9,-16 -0.7,-2.8 -2,-5.4 -3.8,-7.6 -1.8,-2.3 -4.3,-4.1 -7.4,-5.7 -3.1,-1.6 -6.1,-2.3 -9,-2.3 -1.5,0 -2.9,0.1 -4.3,0.4 -1.4,0.3 -2.7,0.7 -4,1.2 -5.2,2.1 -9.8,6.4 -12.8,11.5 -3,5.2 -4.3,11.2 -3.1,17.1 0.3,1.5 0.8,2.9 1.4,4.3 0.7,1.4 1.5,2.7 2.5,3.9 2,2.5 4.8,4.8 8.3,6.6 3.5,1.9 7.1,2.5 10.3,2.6 3.2,0 6.2,-0.6 8.9,-1.9 4.9,-2.3 8.8,-6.7 11.1,-11.7 -1.9,5.2 -2.3,11 -0.4,16.1 2,5.5 6.5,10.5 14.1,13.1 7.6,2.4 14.1,1.5 19.1,-1.8 5,-3.3 8.3,-8.6 9.9,-14.3 1.5,-5.9 1.2,-12.1 -1,-17.3 z" id="path99-26591" inkscape:connector-curvature="0" style="fill: rgb(10, 20, 30);"></path></g><g id="g101"><path class="st0" d="m 388.8,781.3 c -0.4,-2.8 -1.3,-5.6 -2.8,-8.1 -1.5,-2.5 -3.8,-4.6 -6.6,-6.6 -2.8,-2 -5.7,-3.1 -8.7,-3.5 -1.5,-0.2 -2.9,-0.2 -4.3,-0.1 -1.4,0.1 -2.8,0.3 -4.2,0.7 -5.5,1.4 -10.5,5 -14.2,9.8 -3.6,4.7 -5.7,10.6 -5.3,16.5 0.1,1.5 0.4,3 0.8,4.4 0.5,1.4 1.1,2.8 2,4.2 1.7,2.7 4.1,5.3 7.4,7.6 3.2,2.3 6.7,3.4 9.9,3.9 3.2,0.5 6.3,0.2 9.1,-0.7 5.6,-1.7 10.3,-6.1 13.2,-11.2 3.1,-5.3 4.4,-11.2 3.7,-16.9 z" id="path103-26592" inkscape:connector-curvature="0" style="fill: rgb(10, 20, 30);"></path></g><g id="g105"><path class="st0" d="m 321.5,727.7 c 0.4,-2.8 0.2,-5.6 -0.7,-8.4 -0.8,-2.8 -2.2,-5.6 -4.5,-8.2 -2.3,-2.6 -4.9,-4.3 -7.5,-5.6 -2.6,-1.2 -5.5,-1.7 -8.3,-1.7 -5.4,0 -10.9,2 -15.4,5.2 4.3,-3.6 7.5,-8.3 8.9,-13.5 1.5,-5.6 0.9,-11.5 -3,-17.2 -3.7,-5.8 -9.1,-8.6 -14.7,-9.3 -5.6,-0.8 -11.6,0.6 -16.8,3.6 -5.1,3 -9.4,7.6 -11.2,13.3 -1.8,5.6 -1,12.2 3.3,18.9 4.5,6.5 10.5,9.6 16.3,10.2 5.6,0.4 11.1,-1.5 15.6,-4.7 -4.3,3.6 -7.5,8.4 -8.5,13.8 -0.5,2.9 -0.4,6 0.4,9.1 0.8,3.2 2.6,6.3 5.2,9.2 2.6,3 5.5,5.1 8.4,6.4 3,1.3 6.1,1.7 9,1.6 5.9,-0.3 11.5,-3.2 15.7,-7.4 4.1,-4.1 7,-9.6 7.8,-15.3 z" id="path107-26593" inkscape:connector-curvature="0" style="fill: rgb(10, 20, 30);"></path></g><g id="g109"><path class="st0" d="m 270.7,659.5 c 2.2,-5.3 2.4,-11.3 -0.8,-17.4 -2.9,-6.3 -7.9,-9.7 -13.4,-11.1 -5.4,-1.5 -11.6,-0.9 -17.1,1.4 -5.5,2.3 -10.3,6.3 -12.9,11.7 -2.5,5.3 -2.6,12 0.8,19.2 3.6,7.1 9.1,10.9 14.8,12.2 5.8,1.2 12,-0.2 17.1,-3.2 5.2,-3 9.4,-7.5 11.5,-12.8 z" id="path111-26594" inkscape:connector-curvature="0" style="fill: rgb(10, 20, 30);"></path></g><g id="g113"><path class="st0" d="m 224.6,588.9 c 5.7,-1.5 11,-4.9 14.5,-9.4 1.7,-2.3 3,-4.8 3.6,-7.6 0.6,-2.8 0.9,-6 0.2,-9.4 -0.6,-3.4 -2,-6.2 -3.7,-8.6 -1.7,-2.4 -3.8,-4.2 -6.3,-5.7 -4.6,-2.6 -10.2,-3.7 -15.7,-3.2 5.5,-1 10.6,-3.4 14.4,-7.2 3.9,-4 6.5,-9.5 6,-16.4 -0.1,-1.7 -0.4,-3.3 -0.9,-4.8 -0.4,-1.5 -0.9,-2.9 -1.6,-4.2 -1.4,-2.6 -3.3,-4.7 -5.6,-6.4 -4.6,-3.5 -10.5,-5.3 -16.5,-5.3 -5.9,0 -11.8,1.9 -16.2,5.9 -2.2,2 -4,4.5 -5.2,7.5 -0.6,1.5 -1.1,3.1 -1.4,4.9 -0.2,1.8 -0.3,3.6 -0.1,5.6 0.6,7.9 4,13.6 9,17 4.6,3.1 10.2,4.3 15.7,3.8 -5.5,1 -10.6,3.5 -14.2,7.7 -1.9,2.3 -3.4,5 -4.2,8.1 -0.8,3.1 -0.8,6.7 0,10.6 0.8,3.9 2.1,7.2 4.1,9.8 2,2.6 4.4,4.5 7,5.9 5.1,2.7 11.3,3 17.1,1.4 z" id="path115-26595" inkscape:connector-curvature="0" style="fill: rgb(10, 20, 30);"></path></g><g id="g117"><path class="st0" d="m 196.6,494.6 c 4.4,4 10.4,5.9 16.3,5.9 5.9,0 11.9,-1.8 16.4,-5.3 4.4,-3.5 7.7,-8.5 8.1,-15.5 0.1,-1.7 0,-3.4 -0.3,-4.9 -0.2,-1.5 -0.5,-3 -1.1,-4.3 -1,-2.7 -2.6,-5.1 -4.7,-7.1 -4.1,-4 -9.8,-6.6 -15.7,-7.4 -5.9,-0.8 -12,0.3 -16.8,3.7 -2.4,1.7 -4.5,3.9 -6.1,6.8 -0.8,1.4 -1.5,3 -2,4.7 -0.4,1.7 -0.7,3.6 -0.8,5.5 -0.4,7.9 2.2,13.9 6.7,17.9 z" id="path119-26596" inkscape:connector-curvature="0" style="fill: rgb(10, 20, 30);"></path></g><g id="g121"><path class="st0" d="m 224.7,410.9 c 5.7,1.5 12,1.3 17.1,-0.9 5.2,-2.2 9.7,-6.2 11.8,-12.8 2.2,-6.5 1.4,-12.4 -1.6,-17.3 -2.8,-4.6 -6.9,-8.3 -12,-10.6 5.2,1.9 10.8,2.2 16,0.9 2.8,-0.7 5.4,-2 7.6,-3.8 2.3,-1.8 4.1,-4.3 5.7,-7.4 1.6,-3.1 2.3,-6.1 2.3,-9 0,-1.5 -0.1,-2.9 -0.4,-4.3 -0.3,-1.4 -0.7,-2.7 -1.2,-4 -2.1,-5.2 -6.4,-9.8 -11.5,-12.8 -5.2,-3 -11.2,-4.3 -17.1,-3.1 -1.5,0.3 -2.9,0.8 -4.3,1.4 -1.4,0.7 -2.7,1.5 -3.9,2.5 -2.5,2 -4.8,4.8 -6.6,8.3 -1.9,3.5 -2.5,7.1 -2.6,10.3 0,3.2 0.6,6.2 1.9,8.9 2.3,4.9 6.7,8.8 11.7,11.1 -5.2,-1.9 -11,-2.3 -16.1,-0.4 -5.5,2 -10.5,6.5 -13.1,14.1 -2.4,7.6 -1.5,14.1 1.8,19.1 3.5,4.9 8.8,8.3 14.5,9.8 z" id="path123-26597" inkscape:connector-curvature="0" style="fill: rgb(10, 20, 30);"></path></g><g id="g125"><path class="st0" d="m 258.7,328.4 c 5.2,3 11.1,4.3 16.9,3.6 2.8,-0.4 5.6,-1.3 8.1,-2.8 2.5,-1.5 4.6,-3.8 6.6,-6.6 2,-2.8 3.1,-5.7 3.5,-8.7 0.2,-1.5 0.2,-2.9 0.1,-4.3 -0.1,-1.4 -0.3,-2.8 -0.7,-4.2 -1.4,-5.5 -5,-10.5 -9.8,-14.2 -4.7,-3.6 -10.6,-5.7 -16.5,-5.3 -1.5,0.1 -3,0.4 -4.4,0.8 -1.4,0.5 -2.8,1.1 -4.2,2 -2.7,1.7 -5.3,4.1 -7.6,7.4 -2.3,3.2 -3.4,6.7 -3.9,9.9 -0.5,3.2 -0.2,6.3 0.7,9.1 1.7,5.7 6.1,10.3 11.2,13.3 z" id="path127-26598" inkscape:connector-curvature="0" style="fill: rgb(10, 20, 30);"></path></g><g id="g129"><path class="st0" d="m 329.1,264.7 c 2.8,0.4 5.6,0.2 8.4,-0.7 2.8,-0.8 5.6,-2.2 8.2,-4.5 2.6,-2.3 4.3,-4.9 5.6,-7.5 1.2,-2.6 1.7,-5.5 1.7,-8.3 0,-5.4 -2,-10.9 -5.2,-15.4 3.6,4.3 8.3,7.5 13.5,8.9 5.6,1.5 11.5,0.9 17.2,-3 5.8,-3.7 8.6,-9.1 9.3,-14.7 0.8,-5.6 -0.6,-11.6 -3.6,-16.8 -3,-5.1 -7.6,-9.4 -13.3,-11.2 -5.6,-1.8 -12.2,-1 -18.9,3.3 -6.5,4.5 -9.6,10.5 -10.2,16.3 -0.4,5.6 1.5,11.1 4.7,15.6 -3.6,-4.3 -8.4,-7.5 -13.8,-8.5 -2.9,-0.5 -6,-0.4 -9.1,0.4 -3.2,0.8 -6.3,2.6 -9.2,5.2 -3,2.6 -5.1,5.5 -6.4,8.4 -1.3,3 -1.7,6.1 -1.6,9 0.3,5.9 3.2,11.5 7.4,15.7 4.1,4.1 9.7,7 15.3,7.8 z" id="path131-26599" inkscape:connector-curvature="0" style="fill: rgb(10, 20, 30);"></path></g><g id="g133"><path class="st0" d="m 397.3,213.9 c 5.3,2.2 11.3,2.4 17.4,-0.8 6.3,-2.9 9.7,-7.9 11.1,-13.4 1.5,-5.4 0.9,-11.6 -1.4,-17.1 -2.3,-5.5 -6.3,-10.3 -11.7,-12.9 -5.3,-2.5 -12,-2.6 -19.2,0.8 -7.1,3.6 -10.9,9.1 -12.2,14.8 -1.2,5.8 0.2,12 3.2,17.1 3,5.2 7.6,9.3 12.8,11.5 z" id="path135-26600" inkscape:connector-curvature="0" style="fill: rgb(10, 20, 30);"></path></g><g id="g137"><path class="st0" d="m 477.3,182.2 c 2.3,1.7 4.8,3 7.6,3.6 2.8,0.6 6,0.9 9.4,0.2 3.4,-0.7 6.2,-2 8.6,-3.7 2.4,-1.7 4.2,-3.8 5.7,-6.3 2.6,-4.6 3.7,-10.2 3.2,-15.7 1,5.5 3.4,10.6 7.2,14.4 4,3.9 9.5,6.5 16.4,6 1.7,-0.1 3.3,-0.4 4.8,-0.9 1.5,-0.4 2.9,-0.9 4.2,-1.6 2.6,-1.4 4.7,-3.3 6.4,-5.6 3.5,-4.6 5.3,-10.5 5.3,-16.5 0,-5.9 -1.9,-11.8 -5.9,-16.2 -2,-2.2 -4.5,-4 -7.5,-5.2 -1.5,-0.6 -3.1,-1.1 -4.9,-1.4 -1.8,-0.2 -3.6,-0.3 -5.6,-0.1 -7.9,0.6 -13.6,4 -17,9 -3.1,4.6 -4.3,10.2 -3.8,15.7 -1,-5.5 -3.5,-10.6 -7.7,-14.2 -2.3,-1.9 -5,-3.4 -8.1,-4.2 -3.1,-0.8 -6.7,-0.8 -10.6,0 -3.9,0.8 -7.2,2.1 -9.8,4.1 -2.6,2 -4.5,4.4 -5.9,7 -2.7,5.3 -3,11.5 -1.4,17.2 1.5,5.7 4.9,11 9.4,14.4 z" id="path139-26601" inkscape:connector-curvature="0" style="fill: rgb(10, 20, 30);"></path></g><g id="g141"><path class="st0" d="m 577.2,180.6 c 1.7,0.1 3.4,0 4.9,-0.3 1.5,-0.2 3,-0.5 4.3,-1.1 2.7,-1 5.1,-2.6 7.1,-4.7 4,-4.1 6.6,-9.8 7.4,-15.7 0.8,-5.9 -0.3,-12 -3.7,-16.8 -1.7,-2.4 -3.9,-4.5 -6.8,-6.1 -1.4,-0.8 -3,-1.5 -4.7,-2 -1.7,-0.4 -3.6,-0.7 -5.5,-0.8 -7.9,-0.4 -14,2.1 -18,6.7 -4,4.4 -5.9,10.4 -5.9,16.3 0,5.9 1.8,11.9 5.3,16.4 3.6,4.4 8.6,7.7 15.6,8.1 z" id="path143-26602" inkscape:connector-curvature="0" style="fill: rgb(10, 20, 30);"></path></g><g id="g145"><path class="st0" d="m 646.8,185 c 2.2,5.2 6.2,9.7 12.8,11.8 6.5,2.2 12.4,1.4 17.3,-1.6 4.6,-2.8 8.3,-6.9 10.6,-12 -1.9,5.2 -2.2,10.8 -0.9,16 0.7,2.8 2,5.4 3.8,7.6 1.8,2.3 4.3,4.1 7.4,5.7 3.1,1.6 6.1,2.3 9,2.3 1.5,0 2.9,-0.1 4.3,-0.4 1.4,-0.3 2.7,-0.7 4,-1.2 5.2,-2.1 9.8,-6.4 12.8,-11.5 3,-5.2 4.3,-11.2 3.1,-17.1 -0.3,-1.5 -0.8,-2.9 -1.4,-4.3 -0.7,-1.4 -1.5,-2.7 -2.5,-3.9 -2,-2.5 -4.8,-4.8 -8.3,-6.6 -3.5,-1.9 -7.1,-2.5 -10.3,-2.6 -3.2,0 -6.2,0.6 -8.9,1.9 -4.9,2.3 -8.8,6.7 -11.1,11.7 1.9,-5.2 2.3,-11 0.4,-16.1 -2,-5.5 -6.5,-10.5 -14.1,-13.1 -7.6,-2.4 -14.1,-1.5 -19.1,1.8 -5,3.3 -8.3,8.6 -9.9,14.3 -1.4,5.9 -1.2,12.1 1,17.3 z" id="path147-26603" inkscape:connector-curvature="0" style="fill: rgb(10, 20, 30);"></path></g><g id="g149"><path class="st0" d="m 724.8,218.7 c 0.4,2.8 1.3,5.6 2.8,8.1 1.5,2.5 3.8,4.6 6.6,6.6 2.8,2 5.7,3.1 8.7,3.5 1.5,0.2 2.9,0.2 4.3,0.1 1.4,-0.1 2.8,-0.3 4.2,-0.7 5.5,-1.4 10.5,-5 14.2,-9.8 3.6,-4.7 5.7,-10.6 5.3,-16.5 -0.1,-1.5 -0.4,-3 -0.8,-4.4 -0.5,-1.4 -1.1,-2.8 -2,-4.2 -1.7,-2.7 -4.1,-5.3 -7.4,-7.6 -3.2,-2.3 -6.7,-3.4 -9.9,-3.9 -3.2,-0.5 -6.3,-0.2 -9.1,0.7 -5.6,1.7 -10.3,6.1 -13.2,11.2 -3.1,5.3 -4.3,11.2 -3.7,16.9 z" id="path151-26604" inkscape:connector-curvature="0" style="fill: rgb(10, 20, 30);"></path></g><g id="g153"><path class="st0" d="m 792.2,272.3 c -0.4,2.8 -0.2,5.6 0.7,8.4 0.8,2.8 2.2,5.6 4.5,8.2 2.3,2.6 4.9,4.3 7.5,5.6 2.6,1.2 5.5,1.7 8.3,1.7 5.4,0 10.9,-2 15.4,-5.2 -4.3,3.6 -7.5,8.3 -8.9,13.5 -1.5,5.6 -0.9,11.5 3,17.2 3.7,5.8 9.1,8.6 14.7,9.3 5.6,0.8 11.6,-0.6 16.8,-3.6 5.1,-3 9.4,-7.6 11.2,-13.3 1.8,-5.6 1,-12.2 -3.3,-18.9 -4.5,-6.5 -10.5,-9.6 -16.3,-10.2 -5.6,-0.4 -11.1,1.5 -15.6,4.7 4.3,-3.6 7.5,-8.4 8.5,-13.8 0.5,-2.9 0.4,-6 -0.4,-9.1 -0.8,-3.2 -2.6,-6.3 -5.2,-9.2 -2.6,-3 -5.5,-5.1 -8.4,-6.4 -3,-1.3 -6.1,-1.7 -9,-1.6 -5.9,0.3 -11.5,3.2 -15.7,7.4 -4.2,4.1 -7.1,9.6 -7.8,15.3 z" id="path155-26605" inkscape:connector-curvature="0" style="fill: rgb(10, 20, 30);"></path></g><g id="g157"><path class="st0" d="m 843,340.5 c -2.2,5.3 -2.4,11.3 0.8,17.4 2.9,6.3 7.9,9.7 13.4,11.1 5.4,1.5 11.6,0.9 17.1,-1.4 5.5,-2.3 10.3,-6.3 12.9,-11.7 2.5,-5.3 2.6,-12 -0.8,-19.2 -3.6,-7.1 -9.1,-10.9 -14.8,-12.2 -5.8,-1.2 -12,0.2 -17.1,3.2 -5.2,3 -9.4,7.5 -11.5,12.8 z" id="path159-26606" inkscape:connector-curvature="0" style="fill: rgb(10, 20, 30);"></path></g><g id="g161"><path class="st0" d="m 889.1,411.1 c -5.7,1.5 -11,4.9 -14.5,9.4 -1.7,2.3 -3,4.8 -3.6,7.6 -0.6,2.8 -0.9,6 -0.2,9.4 0.6,3.4 2,6.2 3.7,8.6 1.7,2.4 3.8,4.2 6.3,5.7 4.6,2.6 10.2,3.7 15.7,3.2 -5.5,1 -10.6,3.4 -14.4,7.2 -3.9,4 -6.5,9.5 -6,16.4 0.1,1.7 0.4,3.3 0.9,4.8 0.4,1.5 0.9,2.9 1.6,4.2 1.4,2.6 3.3,4.7 5.6,6.4 4.6,3.5 10.5,5.3 16.5,5.3 5.9,0 11.8,-1.9 16.2,-5.9 2.2,-2 4,-4.5 5.2,-7.5 0.6,-1.5 1.1,-3.1 1.4,-4.9 0.2,-1.8 0.3,-3.6 0.1,-5.6 -0.6,-7.9 -4,-13.6 -9,-17 -4.6,-3.1 -10.2,-4.3 -15.7,-3.8 5.5,-1 10.6,-3.5 14.2,-7.7 1.9,-2.3 3.4,-5 4.2,-8.1 0.8,-3.1 0.8,-6.7 0,-10.6 -0.8,-3.9 -2.1,-7.2 -4.1,-9.8 -2,-2.6 -4.4,-4.5 -7,-5.9 -5.1,-2.7 -11.3,-3 -17.1,-1.4 z" id="path163-26607" inkscape:connector-curvature="0" style="fill: rgb(10, 20, 30);"></path></g><g id="g165"><path class="st0" d="m 917,505.4 c -4.4,-4 -10.4,-5.9 -16.3,-5.9 -5.9,0 -11.9,1.8 -16.4,5.3 -4.4,3.5 -7.7,8.5 -8.1,15.5 -0.1,1.7 0,3.4 0.3,4.9 0.2,1.5 0.5,3 1.1,4.3 1,2.7 2.6,5.1 4.7,7.1 4.1,4 9.8,6.6 15.7,7.4 5.9,0.8 12,-0.3 16.8,-3.7 2.4,-1.7 4.5,-3.9 6.1,-6.8 0.8,-1.4 1.5,-3 2,-4.7 0.4,-1.7 0.7,-3.6 0.8,-5.5 0.5,-7.9 -2.1,-13.9 -6.7,-17.9 z" id="path167-26608" inkscape:connector-curvature="0" style="fill: rgb(10, 20, 30);"></path></g></g></g></g></switch></svg></g><g transform="rotate(0 433.49843872070323 341.9187943646603)"><svg id="1647487748413" opacity="1" fill="rgb(10, 20, 30)" viewBox="1.4389982223510742 -57.599998474121094 152.281005859375 59.689998626708984" width="219.39687744140645" preserveAspectRatio="none" height="85.99758872932058" x="323.8" y="298.92"><path id="textPath" d="M27.22 2.09C44.71 2.09 57.46-4.46 57.46-22.03L57.46-49.75C57.46-52.99 60.12-55.51 63.29-55.51L65.09-55.51C65.66-55.51 66.17-56.02 66.17-56.52C66.17-57.10 65.66-57.60 65.09-57.60L31.10-57.60C30.53-57.60 30.02-57.10 30.02-56.52C30.02-56.02 30.53-55.51 31.10-55.51L32.98-55.51C36.14-55.51 38.74-52.92 38.74-49.75L38.74-16.49C38.74-9.22 35.42 0 27.22 0C20.45 0 18.22-7.13 18.22-18.94C18.22-23.04 16.06-28.58 10.58-28.58C4.97-28.58 1.37-24.55 1.44-20.45C1.44-6.19 9.72 2.09 27.22 2.09ZM40.46-1.73C40.32-1.80 40.18-1.80 39.82-1.80C39.24-1.87 38.59-1.87 38.02-1.94C37.80-1.94 37.66-2.02 37.73-2.23C37.80-2.38 37.87-2.52 38.09-2.45C38.38-2.30 38.66-2.23 38.95-2.23C39.24-2.30 39.53-2.16 39.60-2.66C39.17-3.02 38.52-2.66 37.94-2.95L38.95-3.17C38.74-3.60 38.66-3.89 38.52-4.25C38.45-4.46 38.38-4.61 38.16-4.61C38.09-4.54 38.02-4.54 38.02-4.54C38.38-5.26 38.74-6.05 39.02-6.77C39.24-6.84 39.38-6.91 39.38-7.13L39.24-7.34C39.38-7.63 39.46-7.92 39.53-8.21L39.74-7.99C40.61-7.20 41.69-6.91 42.84-6.84C43.06-6.84 43.42-6.91 43.34-7.06C43.06-7.56 43.70-7.78 43.49-8.21C42.91-8.50 42.19-8.50 41.69-9.07C42.12-9.36 42.48-9.07 42.84-8.93C43.13-8.86 43.49-8.42 43.78-8.86C44.06-9.36 43.49-9.36 43.27-9.65C43.20-9.65 43.20-9.72 43.13-9.79C43.34-9.72 43.56-9.65 43.78-9.65C44.06-9.58 44.28-9.65 44.35-9.94C44.50-10.15 44.21-10.30 44.06-10.37C43.34-10.66 42.77-11.23 42.34-11.88C41.98-12.31 41.47-12.46 40.97-12.31L40.54-12.10C40.61-12.38 40.61-12.67 40.68-12.89C40.82-12.96 40.97-13.03 41.11-13.03C41.18-13.25 40.54-13.18 40.90-13.75C41.04-13.90 40.97-14.11 40.82-14.33L40.82-14.76C41.11-14.47 41.47-14.33 41.83-14.26C42.05-14.47 42.26-14.83 42.48-14.98C43.63-15.70 43.85-16.63 43.56-17.93C43.27-19.22 42.41-20.02 41.04-19.87L40.90-19.87L40.90-20.52L40.97-20.52C41.76-20.52 42.48-20.38 43.13-19.94C43.92-19.44 43.92-19.44 44.64-20.16L45.14-20.74C44.57-21.31 44.21-21.82 43.92-22.46C43.56-23.54 43.70-24.62 44.14-25.63C44.28-26.06 44.42-26.50 44.14-27.00C43.78-27.65 43.99-28.30 44.35-28.87C44.50-29.23 44.71-29.52 44.93-29.88C45.22-30.24 45.07-30.46 44.71-30.67C43.99-31.03 43.34-31.46 42.91-32.11C42.34-32.98 41.69-33.62 40.90-33.98L40.90-34.85C41.11-34.78 41.33-34.70 41.62-34.56C41.98-34.34 42.19-33.77 42.70-33.98C43.06-34.20 43.27-34.63 43.56-34.92C44.21-35.64 44.21-35.93 43.42-36.86C42.70-37.73 41.83-38.38 40.90-38.66L40.90-39.60L41.11-39.46C42.41-39.02 43.34-38.16 44.28-37.22C45.00-36.50 45.94-36.00 47.09-36.36C47.09-36.72 47.02-36.86 46.87-37.01C44.78-38.09 42.91-39.46 40.90-40.90L40.90-41.40C40.97-41.33 40.97-41.26 41.04-41.26C42.19-40.39 43.20-39.53 44.35-38.81C44.93-38.45 45.43-38.02 46.30-37.80C46.08-38.38 46.08-38.88 46.30-39.31C46.44-39.60 46.30-39.82 46.08-40.03C44.78-41.04 43.27-41.76 41.90-42.55C41.54-42.77 41.18-42.77 40.97-42.34C40.97-42.26 40.90-42.19 40.90-42.12L40.90-43.27L40.97-43.34C41.69-44.21 42.70-44.50 43.70-44.71C45.22-45.00 46.30-45.72 46.80-47.23C47.23-48.31 47.88-49.18 49.03-49.68C49.68-49.97 50.33-50.11 51.05-50.18C51.84-50.18 52.63-50.26 52.85-51.26C52.92-51.55 53.21-51.70 53.42-51.84C54.07-52.49 54.14-53.28 53.71-54.14C52.70-54.00 52.27-53.28 51.91-52.49C51.48-51.84 51.05-51.55 50.18-51.55C48.02-51.62 46.51-50.47 45.72-48.46C45.22-47.09 44.21-46.30 42.84-45.94C42.19-45.72 41.54-45.50 40.90-45.14L40.90-46.30C41.18-46.30 41.47-46.37 41.76-46.37C42.26-46.44 42.26-46.66 41.98-46.94C41.83-47.16 41.76-47.38 41.47-47.45C41.26-47.45 41.11-47.52 40.90-47.52L40.90-47.88C41.26-47.81 41.62-47.66 41.98-47.59C42.19-47.52 42.41-47.38 42.55-47.74C42.12-48.24 41.54-48.67 40.90-48.96L40.90-49.75C40.90-50.18 40.90-50.54 40.82-50.90L41.04-50.69C41.11-50.62 41.33-50.54 41.40-50.62C41.54-50.69 41.62-50.98 41.54-51.05C41.18-51.62 41.18-52.42 40.39-52.78C40.32-52.85 40.32-52.85 40.25-52.85C40.10-53.28 39.89-53.64 39.67-54.00C40.18-53.71 40.75-53.42 41.54-53.21C41.18-53.86 41.18-54.58 40.82-55.15C40.75-55.22 40.68-55.30 40.61-55.44L41.11-55.44C41.26-54.94 41.62-54.50 41.76-54.00C41.90-53.71 41.62-53.14 42.12-53.14C42.55-53.14 42.05-53.78 42.34-53.93C42.98-54.22 42.77-54.72 42.62-55.22C42.55-55.30 42.55-55.37 42.55-55.44L43.27-55.44C43.34-55.22 43.42-55.01 43.42-54.79C43.85-54.94 44.14-55.01 44.42-55.15C44.78-55.37 45.00-55.22 45.07-54.79C45.22-53.42 46.08-52.42 46.66-51.19C47.66-51.84 48.67-52.34 49.75-52.34C50.76-52.34 51.34-52.85 51.62-53.71C50.33-54.07 49.61-54.58 49.25-55.44L50.11-55.44C50.33-55.15 50.54-54.94 50.90-54.72C51.55-54.36 52.20-54.36 52.99-54.72C53.35-54.94 53.50-55.15 53.50-55.44L54.22-55.44C54.29-54.86 54.43-54.36 54.79-53.86C55.08-53.35 55.44-52.99 55.87-52.63C55.73-52.42 55.66-52.20 55.58-51.91C55.22-52.13 54.94-52.34 54.50-52.42C54.58-51.48 54.72-51.12 55.37-50.62C55.30-50.33 55.30-50.04 55.30-49.75L55.30-49.68C54.79-49.97 54.36-50.33 54.14-50.98C54.14-51.05 54.00-51.26 53.86-51.12C53.64-51.05 53.57-50.83 53.71-50.69C54.14-49.90 54.65-49.25 55.30-48.60L55.30-48.17C54.72-48.67 54.14-49.32 53.71-50.04C53.64-50.18 53.42-50.40 53.21-50.26C52.92-50.04 53.21-49.90 53.28-49.68C53.93-48.82 54.58-47.95 55.30-47.09L55.30-46.37C54.65-47.16 54.00-47.95 53.35-48.82C52.85-49.46 52.42-49.61 51.70-49.32C52.06-48.60 53.86-46.22 55.30-44.42L55.30-43.78C54.65-44.57 54.07-45.43 53.42-46.22C52.70-47.16 51.91-47.95 51.26-48.96C51.05-49.39 50.83-49.39 50.47-49.39C50.18-49.39 49.90-49.25 49.54-49.03L49.82-48.53C50.76-47.09 51.98-45.94 52.99-44.64C53.64-43.92 54.36-43.34 55.30-43.27L55.30-42.55L54.72-42.77C53.78-43.06 53.06-42.48 53.14-41.47C53.14-41.04 53.28-40.68 53.35-40.32C53.71-39.24 54.50-38.45 55.30-37.66L55.30-36.36C53.86-35.64 52.70-34.13 52.56-32.33C52.42-30.74 52.49-29.16 53.06-27.72C53.57-26.50 54.29-25.56 55.30-24.77L55.30-21.82L55.08-21.38C54.79-21.02 54.58-20.52 54.29-19.94C54.07-20.23 54.43-20.59 54.14-20.66C53.86-20.81 53.42-20.66 53.35-20.38C53.21-19.80 52.92-19.15 53.35-18.50C53.71-17.86 54.29-17.57 54.94-17.35C54.86-17.14 54.86-16.92 54.79-16.70C53.78-16.99 52.99-17.64 52.49-18.72C52.27-19.15 52.78-19.87 52.27-20.09C51.91-20.30 51.34-20.09 50.83-20.09C50.54-20.09 50.26-20.16 49.97-20.23C49.75-20.23 49.46-20.38 49.18-20.16C49.25-20.02 49.25-19.94 49.32-19.87C49.90-18.94 50.26-18.07 50.04-16.99C49.90-16.49 50.26-16.34 50.54-16.20C51.91-15.34 52.27-14.04 51.84-12.74C51.55-11.88 51.77-11.45 52.34-10.94C52.49-10.87 52.56-10.80 52.63-10.66L52.34-10.15C51.41-11.38 49.61-12.17 48.46-11.81C48.24-11.74 48.02-11.59 47.81-11.52C46.51-11.16 45.50-10.44 44.86-9.29C44.06-7.85 43.92-6.26 44.14-4.68C44.21-4.18 44.28-3.74 44.50-3.31C44.14-3.10 43.78-2.95 43.42-2.81C43.56-2.95 43.63-3.10 43.56-3.38C43.42-3.82 43.27-4.03 42.77-4.03C42.34-4.03 41.98-3.82 41.62-3.96C41.40-4.03 41.11-4.03 41.11-4.32C41.11-4.68 41.33-4.61 41.62-4.61C41.98-4.54 42.19-4.90 42.41-5.04C43.20-5.54 43.27-5.40 43.13-6.34C42.34-6.12 41.54-6.34 40.82-6.55C39.96-6.70 39.46-6.48 39.17-5.69C38.95-5.04 39.02-4.46 39.38-3.96C39.96-3.31 40.61-2.74 41.47-2.52C41.76-2.38 42.05-2.38 42.41-2.38ZM46.80-53.28C46.37-53.28 45.94-53.42 45.94-53.93C45.94-54.36 46.22-54.58 46.66-54.65C47.02-54.65 47.30-54.79 47.30-55.15L47.30-55.44L48.24-55.44C48.31-55.37 48.31-55.22 48.38-55.15C48.46-55.01 48.46-54.86 48.46-54.72C48.67-53.57 48.38-53.21 47.23-53.28C47.09-53.28 46.94-53.21 46.80-53.28ZM57.60-55.30C57.53-55.30 57.53-55.37 57.46-55.44L57.67-55.44C57.67-55.37 57.60-55.30 57.60-55.30ZM44.35-47.45C45.00-48.17 45.07-49.03 45.58-49.68C46.15-50.40 46.08-51.05 45.65-51.77C45.22-52.42 44.86-53.14 44.64-53.86C44.42-54.43 44.14-54.58 43.70-54.14C42.48-52.85 41.90-51.41 42.26-49.61C42.41-49.18 42.48-48.60 43.13-48.53C43.56-49.39 43.20-50.47 43.99-51.19C43.85-49.97 43.34-48.74 44.35-47.45ZM51.91-42.05C52.06-41.98 52.27-41.83 52.42-42.12C52.49-42.26 52.63-42.48 52.56-42.62C52.49-42.84 52.34-42.98 52.20-43.13C51.05-43.99 50.11-45.14 48.96-46.01C48.60-46.30 48.24-46.58 48.17-47.16C48.53-47.23 48.67-47.09 48.74-46.94C49.75-45.79 50.83-44.78 51.91-43.78C52.27-43.42 52.78-42.77 53.28-43.34C53.71-43.85 52.92-44.21 52.70-44.57C51.84-45.58 50.90-46.44 50.11-47.45C48.82-49.03 48.53-49.03 47.52-47.23L47.45-47.16C47.02-46.30 47.02-46.30 47.66-45.58C48.89-44.35 50.26-43.34 51.55-42.26ZM52.49-40.39C52.49-41.04 52.42-41.40 51.91-41.69C50.33-42.77 48.82-43.99 47.38-45.36C46.94-45.72 46.44-45.50 46.30-45.00C46.22-44.64 46.58-44.50 46.80-44.28C48.46-42.77 50.26-41.40 52.49-40.39ZM50.47-41.04C48.89-42.19 47.45-43.27 46.01-44.28C45.79-44.42 45.50-44.57 45.22-44.42C44.78-44.21 44.21-44.28 43.63-43.85C44.93-42.84 46.30-42.19 47.59-41.40C48.46-40.90 49.32-40.90 50.47-41.04ZM45.65-40.61C46.66-39.96 46.66-39.96 47.81-40.97C46.37-41.76 44.86-42.55 43.42-43.42C42.77-43.78 42.34-43.63 41.90-43.20C42.19-42.70 42.70-42.55 43.06-42.26C43.92-41.69 44.86-41.18 45.65-40.61ZM51.41-34.92C52.34-34.49 52.34-34.49 53.06-35.42C53.14-35.57 53.28-35.57 53.35-35.64C53.64-35.93 53.57-36.14 53.21-36.29C52.63-36.65 51.98-37.01 51.34-37.37C51.77-37.58 51.98-36.94 52.34-37.22L52.34-37.37L50.62-38.52C50.62-38.59 50.69-38.66 50.69-38.66C51.12-38.45 51.55-38.23 51.98-37.94L53.78-36.86C54.07-36.72 54.36-36.36 54.72-36.79C55.01-37.22 54.50-37.44 54.36-37.66L52.92-39.31C52.70-39.53 52.49-39.67 52.20-39.82C50.98-40.25 49.75-40.54 48.46-40.25C46.94-39.96 46.44-38.52 47.38-37.37C47.88-36.79 48.46-36.36 49.10-36.07C49.82-35.64 50.62-35.28 51.41-34.92ZM50.76-30.38C50.90-30.38 51.12-30.46 51.19-30.67C51.19-30.74 51.12-30.82 51.05-30.82C50.98-30.89 50.76-30.82 50.98-30.96C50.98-31.03 51.12-30.96 51.19-31.03C51.84-31.18 51.98-31.54 51.55-31.90C51.12-32.26 51.62-32.26 51.55-32.40C51.48-32.76 51.70-33.19 51.12-33.26C50.90-33.26 50.69-33.41 50.47-33.48L50.47-33.55L51.62-33.34C51.84-33.34 52.13-33.34 52.13-33.70C52.20-33.91 51.98-34.06 51.84-34.13C50.90-34.34 50.18-34.85 49.39-35.28C47.74-36.07 46.08-35.86 44.57-34.99C42.98-33.98 42.98-32.47 44.64-31.46C46.51-30.38 48.60-30.24 50.76-30.38ZM55.30-27.94C54.94-28.51 54.72-29.16 54.58-29.88C54.50-29.95 54.50-30.02 54.50-30.10C54.22-31.32 54.50-32.33 55.30-33.19L55.30-32.04C55.22-31.90 55.15-31.68 55.15-31.46C55.15-30.89 55.15-30.38 55.30-29.88ZM47.45-25.20C48.74-25.27 50.11-25.34 51.34-25.85C51.77-25.99 52.13-26.14 52.34-26.50C52.56-26.71 52.56-27.00 52.13-26.93C51.48-26.86 51.84-27.07 51.98-27.22C52.13-27.29 52.27-27.36 52.20-27.58C52.13-27.72 51.98-27.72 51.77-27.72C51.41-27.65 50.98-27.58 50.54-27.65C50.76-27.72 50.98-27.72 51.12-27.79C51.48-27.94 52.06-27.94 51.98-28.37C51.91-28.94 51.41-28.73 51.05-28.73C50.90-28.80 50.90-28.80 50.90-28.87C51.12-29.02 51.48-28.94 51.62-29.30C49.90-29.81 48.17-29.66 46.51-30.10C46.22-30.17 45.94-30.17 45.79-29.95C45.22-29.30 44.78-28.66 44.78-27.72C44.71-26.50 45.94-25.20 47.45-25.20ZM15.84-20.88C14.26-20.95 13.03-21.74 11.88-22.75C11.52-23.04 11.45-23.40 11.30-23.76C11.02-24.55 11.09-25.34 11.38-26.14C11.38-26.21 11.38-26.28 11.45-26.35C11.66-26.35 11.88-26.28 12.02-26.21C11.88-25.78 11.81-25.27 11.74-24.77C11.66-24.12 11.88-23.47 12.53-23.04C12.60-24.05 12.89-24.91 13.25-25.63C13.39-25.49 13.54-25.42 13.61-25.27C12.96-24.19 13.03-22.46 14.40-22.03C14.47-22.10 14.54-22.18 14.47-22.25C14.26-22.82 14.40-23.40 14.76-23.90C14.83-23.76 14.98-23.62 15.05-23.40C14.83-23.04 14.90-22.61 15.12-22.25C15.26-21.96 15.41-21.82 15.70-21.67C15.77-21.46 15.77-21.17 15.84-20.88ZM46.51-20.95L48.10-20.95C47.16-22.03 47.16-23.26 47.74-24.55C46.66-24.70 45.72-24.91 45.00-25.70C43.99-23.76 44.57-22.46 45.65-21.31C45.86-21.10 46.15-20.95 46.51-20.95ZM51.19-20.74C52.49-20.88 54.07-20.95 55.01-22.46C55.22-22.82 55.30-22.75 54.86-23.26C54.79-23.40 54.86-23.47 54.94-23.54C55.08-23.76 55.01-23.98 54.79-23.98C54.43-23.98 54.29-24.19 54.07-24.48C53.64-25.42 52.85-25.70 51.91-25.34C51.05-25.06 50.18-24.98 49.32-24.77C49.03-24.70 48.74-24.77 48.53-24.55C47.66-23.40 47.81-21.82 48.96-21.17C49.61-20.88 50.26-20.74 51.19-20.74ZM19.44-0.79C18.14-1.01 16.92-1.30 15.84-1.73C15.77-1.87 15.77-2.02 15.77-2.16C15.62-2.74 15.84-3.31 16.06-3.82C16.49-5.11 16.49-5.11 15.19-5.40L14.62-5.54C13.90-5.62 13.54-5.18 13.75-4.46C13.90-4.18 14.04-3.82 14.11-3.46C14.18-3.02 14.26-2.66 14.18-2.38C13.03-2.81 12.02-3.38 11.02-4.03C11.81-4.54 12.53-5.11 13.18-5.69C13.68-6.12 13.68-6.19 13.18-6.98C12.82-7.49 12.60-7.27 12.17-7.06L9.14-5.54L8.71-5.98C9.86-6.41 10.94-6.91 12.10-7.49C12.60-7.78 12.82-8.21 12.89-8.78C13.03-10.30 13.90-11.38 15.41-11.88C15.55-11.88 15.84-11.88 15.98-12.17C15.84-12.46 15.55-12.53 15.34-12.67C13.90-13.90 13.68-15.62 14.83-17.21C14.98-17.35 15.05-17.50 15.05-17.71C13.68-16.85 11.38-17.28 10.22-18.58C9.65-19.15 9.07-19.44 8.28-19.58C7.13-19.80 6.19-20.52 6.12-21.67C6.05-22.61 5.40-22.90 4.90-23.04C4.75-23.04 4.54-23.11 4.32-23.11C4.54-23.47 4.75-23.83 5.04-24.12C5.47-23.54 5.98-23.11 6.48-22.82C7.27-22.46 8.14-22.10 9.07-22.03C8.64-21.74 8.28-21.82 7.85-21.89C7.56-21.89 7.06-22.18 6.84-21.67C6.70-21.24 7.13-20.95 7.49-20.66C7.85-20.38 8.28-20.16 8.71-20.09C9.58-19.94 10.37-19.87 11.16-20.09C11.52-20.16 11.81-20.30 12.31-20.09C11.74-19.87 11.38-19.73 11.02-19.51C10.37-19.30 10.30-19.08 10.87-18.72C12.10-17.71 14.62-17.42 15.91-19.44C15.98-19.44 15.98-19.51 15.98-19.51C15.98-19.30 16.06-19.15 16.06-18.94L16.06-18.58L15.91-18.43C15.70-18.14 15.48-17.86 15.05-17.71C15.41-17.78 15.70-17.86 16.06-17.86L16.06-17.21C15.19-16.92 14.69-16.13 14.69-15.05C14.62-13.97 15.26-13.03 16.27-12.60C16.34-12.17 16.34-11.81 16.42-11.45C15.70-11.30 14.90-11.16 14.33-10.58C13.75-9.94 13.39-9.07 13.46-8.21C13.54-7.42 13.90-6.84 14.54-6.34C15.55-5.54 16.56-5.33 17.57-5.76C17.64-5.54 17.71-5.26 17.86-5.04C17.14-4.68 16.78-4.03 16.56-3.24C16.13-2.09 16.49-1.51 17.71-1.44C18.36-1.37 18.94-1.58 19.44-1.87C19.51-1.73 19.66-1.51 19.80-1.37C19.66-1.15 19.58-0.94 19.44-0.79ZM46.80-15.70C46.87-16.49 47.02-17.21 47.16-18.22C47.52-17.35 47.23-16.63 47.59-15.98C47.95-16.06 48.17-16.20 48.38-16.20C49.18-16.42 49.46-16.99 49.32-17.93C49.03-19.73 47.45-20.66 45.79-20.02C44.71-19.66 44.06-18.58 44.14-17.50C44.21-17.14 44.21-16.78 44.50-16.63C45.00-16.34 45.50-16.06 46.08-16.34C46.37-16.49 46.22-16.20 46.37-16.13C46.44-15.98 46.51-15.77 46.80-15.70ZM50.76-12.17C51.19-12.24 51.26-12.60 51.26-12.89C51.26-13.39 51.26-13.90 51.12-14.40C50.83-15.34 50.11-15.91 49.25-15.84C48.38-15.77 47.81-15.19 47.59-14.26C47.23-12.82 47.66-12.31 49.18-12.53C49.32-12.53 49.54-12.53 49.54-12.82C49.61-13.03 49.46-13.10 49.25-13.18C48.60-13.39 49.25-13.54 49.32-13.68C49.39-13.82 49.32-14.04 49.54-14.04C49.97-13.75 49.97-13.25 50.04-12.82C50.11-12.31 50.40-12.17 50.76-12.17ZM44.71-10.58C45.36-10.87 45.58-11.16 45.14-11.74C44.86-12.10 44.57-12.53 44.42-13.03C44.86-13.25 45.22-13.32 45.43-12.89C45.65-12.53 45.79-12.24 46.01-11.95C46.30-11.59 46.58-11.81 46.94-11.95C47.30-12.10 47.23-12.31 47.16-12.60C46.94-13.03 46.87-13.46 46.80-13.97C46.66-15.48 45.36-16.20 44.06-15.48C42.48-14.62 42.26-12.67 43.63-11.45C43.85-11.30 44.06-10.73 44.42-11.38C44.57-11.59 44.64-11.23 44.64-11.16C44.71-11.02 44.71-10.87 44.71-10.58ZM53.64-12.74C53.28-12.89 52.99-13.25 52.92-13.68C52.92-14.33 53.42-14.83 54.07-14.90C54.22-14.90 54.29-14.90 54.36-14.83C54.14-14.11 53.93-13.39 53.64-12.74ZM48.17-5.54C47.95-6.55 48.10-7.63 48.82-8.50C49.54-9.43 50.69-9.58 51.55-9.00C51.41-8.86 51.26-8.64 51.12-8.42C50.76-8.71 50.33-8.71 49.75-8.42C49.46-8.28 49.25-8.06 49.10-7.78C48.74-7.27 48.60-6.62 48.67-5.98ZM7.78-6.98C7.70-7.06 7.63-7.20 7.49-7.34C7.63-7.34 7.78-7.34 7.92-7.27C7.92-7.20 7.92-7.06 7.85-7.06C7.85-6.98 7.85-6.98 7.78-6.98ZM34.78-0.58L35.42-1.15C35.50-1.01 35.57-0.86 35.71-0.72C35.42-0.65 35.14-0.58 34.78-0.58ZM70.78 0L88.85 0C89.42 0 89.86-0.43 89.86-1.01C89.86-1.58 89.42-2.02 88.85-2.02L86.54-2.02C83.59-2.02 81.14-4.25 80.86-7.13L80.78-54.79L101.02 0L106.13 0L126.36-55.44L126.36-7.78C126.36-4.61 123.77-2.02 120.60-2.02L118.66-2.02C118.08-2.02 117.65-1.58 117.65-1.01C117.65-0.43 118.08 0 118.66 0L152.71 0C153.29 0 153.72-0.43 153.72-1.01C153.72-1.58 153.29-2.02 152.71-2.02L150.91-2.02C147.74-2.02 145.08-4.61 145.08-7.78L145.08-49.75C145.08-52.92 147.60-55.51 150.84-55.51L152.71-55.51C153.29-55.51 153.72-56.02 153.72-56.52C153.72-57.10 153.29-57.60 152.71-57.60L126.07-57.60C125.35-57.60 124.78-57.24 124.63-56.66L112.46-23.33L100.01-57.60L70.78-57.60C70.20-57.60 69.77-57.10 69.77-56.52C69.77-56.02 70.20-55.51 70.78-55.51L73.01-55.51C76.18-55.51 78.77-52.92 78.77-49.75L78.84-7.78C78.84-4.61 76.18-2.02 73.01-2.02L70.78-2.02C70.20-2.02 69.77-1.58 69.77-1.01C69.77-0.43 70.20 0 70.78 0ZM84.10-52.20L83.88-52.78C84.67-53.50 85.10-54.36 85.10-55.44L85.90-55.44C85.90-54.29 85.10-52.85 84.10-52.20ZM106.70-7.85C106.27-7.63 105.91-7.85 105.19-8.35C104.11-9.14 102.82-9.72 101.45-9.79C100.87-9.86 100.30-9.86 99.72-9.79L99.50-10.44C99.94-10.66 100.08-10.87 100.15-11.52C100.15-11.95 100.22-12.38 100.15-12.82C100.01-13.82 99.07-14.33 98.21-13.82L98.06-14.26C99-14.83 100.58-13.97 100.51-12.74C100.44-12.10 100.51-11.38 100.51-10.58C101.16-10.51 101.66-10.58 101.95-11.30C102.02-11.52 102.24-11.88 102.67-11.59C102.60-11.45 102.53-11.30 102.38-11.16C102.10-10.73 102.17-10.37 102.74-10.22L103.46-9.94C103.68-9.86 103.90-9.86 103.97-10.08C104.26-11.02 104.98-11.45 105.91-11.59C106.20-11.66 106.20-11.88 106.06-12.10C105.84-12.53 105.55-12.31 105.26-12.17C104.18-11.66 103.10-11.74 102.02-12.31C101.23-12.74 100.87-13.46 100.51-14.18C99.86-15.62 98.64-15.77 97.63-15.41L97.42-15.98C97.56-16.06 97.56-16.27 97.63-16.49C97.78-17.71 97.70-18.86 96.84-19.87C96.34-20.45 96.05-20.66 95.76-20.52L95.04-22.54C95.47-22.68 95.83-22.97 96.19-23.26C96.55-23.47 96.84-23.83 97.42-23.69C97.13-23.04 96.55-22.75 96.12-22.39C95.90-22.25 95.54-22.18 95.62-21.82C95.69-21.53 95.98-21.46 96.26-21.31C96.48-21.17 96.70-21.17 96.91-21.24C97.78-21.60 98.71-21.89 99.07-22.90C99.43-23.62 99.94-24.19 100.58-24.62C100.80-24.84 101.16-24.91 101.30-25.34C100.73-25.78 100.08-25.92 99.50-26.14C98.64-26.35 97.85-26.64 97.06-27.07C96.05-27.58 95.33-28.37 94.82-29.38C94.61-29.74 94.68-30.31 94.32-30.46C93.89-30.67 93.53-30.24 93.10-30.17C92.81-30.02 92.52-30.02 92.30-29.95L92.09-30.53L92.30-30.53C93.67-30.82 94.10-31.25 94.32-32.69C94.39-33.55 94.75-34.20 95.33-34.78C95.76-35.28 96.19-35.78 96.77-36.07C96.26-36.94 96.19-37.30 96.26-38.02C96.34-38.81 96.34-38.81 95.62-38.88C94.25-39.10 93.74-39.82 93.96-41.18C94.10-42.19 94.61-42.91 95.33-43.56C95.62-43.85 95.98-44.06 96.34-44.35C96.12-44.71 95.98-45.00 95.76-45.29C95.40-45.86 95.33-46.44 95.54-47.09C95.62-47.30 95.76-47.52 95.83-47.74C95.90-47.95 96.05-48.17 95.83-48.38C95.62-48.60 95.33-48.60 95.04-48.53C94.82-48.46 94.68-48.31 94.46-48.24C93.74-47.95 92.88-48.10 92.30-48.67C91.80-49.18 91.73-49.68 92.02-50.26C92.09-50.47 92.23-50.69 92.52-50.62C92.81-50.47 92.88-50.26 92.74-50.04C92.52-49.54 92.52-49.18 93.02-48.89C93.46-48.60 94.10-48.67 94.54-49.10C94.75-49.32 94.97-49.54 95.11-49.82C95.76-50.83 95.33-52.06 94.18-52.49C92.74-52.99 90.72-52.27 89.86-50.98C88.56-49.03 88.34-47.02 88.92-44.78C89.21-43.85 89.64-43.13 90.58-42.48C92.81-40.97 94.10-38.81 93.96-36.00C93.89-34.92 93.53-33.98 92.81-33.19C92.66-33.12 92.52-33.05 92.38-33.19C92.30-33.26 92.30-33.41 92.38-33.48C92.52-33.84 92.74-34.20 92.88-34.56C93.24-35.28 93.46-36.07 93.31-36.94C93.02-38.52 92.38-39.89 91.37-41.18C90.22-42.48 88.85-42.98 87.48-42.98L85.97-47.09C85.82-47.95 85.75-48.67 85.97-49.54C86.40-50.98 87.41-52.20 88.56-53.21C88.13-53.57 87.77-53.93 87.41-54.29C87.12-54.58 86.83-55.01 87.05-55.44L87.70-55.44C87.70-55.37 87.62-55.37 87.62-55.30C87.55-54.86 87.77-54.58 88.06-54.29C88.70-53.86 89.35-53.50 90.14-53.86C90.79-54.14 91.80-53.86 92.02-54.43C92.16-54.72 92.09-55.08 92.02-55.44L92.66-55.44C92.52-54.58 92.74-54.22 93.53-54.00C94.61-53.64 95.33-52.85 95.90-51.98C96.34-51.26 96.34-50.54 95.98-49.82C95.69-49.18 95.83-48.96 96.55-48.89C96.84-48.82 97.06-48.89 97.27-49.10C97.85-49.39 98.42-49.39 98.86-49.10C99.36-48.74 99.65-48.89 100.01-49.32C100.15-49.54 100.37-49.68 100.51-49.82L100.73-49.18C100.51-49.03 100.30-48.74 100.08-48.46C99.94-48.10 99.79-47.74 100.08-47.45C100.37-47.09 100.73-47.45 101.02-47.59C101.09-47.59 101.02-47.95 101.23-47.81L101.52-47.02C99.43-46.58 97.63-44.42 97.56-42.26C97.49-40.10 99.79-37.80 101.88-37.94C102.02-37.94 102.17-38.02 102.24-38.16C102.53-38.81 102.89-39.38 102.89-40.03C102.96-40.54 102.17-40.46 101.81-40.75C101.74-40.82 101.59-40.82 101.52-40.90C100.22-41.83 100.22-44.28 101.59-44.93C101.88-45.07 102.02-45.22 102.10-45.36L103.97-40.32C103.90-40.32 103.90-40.25 103.82-40.18C102.17-37.94 102.74-35.14 104.04-33.55C104.76-32.62 105.70-32.40 106.70-32.76L106.92-32.18L106.63-32.18C105.70-31.90 104.83-32.18 104.04-32.83C103.25-33.41 102.96-34.27 102.60-35.21C102.38-36.07 101.95-36.22 101.16-35.86C100.66-35.57 100.30-35.21 100.15-34.63C100.15-34.34 100.15-34.13 100.08-33.91C100.08-33.77 99.94-33.70 99.86-33.70C99.79-33.70 99.65-33.77 99.65-33.84C99.58-33.98 99.58-34.13 99.50-34.27C99-35.57 97.78-36.00 96.70-35.21C95.54-34.42 94.82-33.48 94.90-32.04C95.04-30.67 95.40-29.30 96.55-28.30C98.14-26.86 100.37-26.78 102.17-25.78C102.53-25.56 103.10-26.06 103.68-26.14C104.04-26.14 104.40-26.21 104.76-26.21C104.98-26.14 105.19-26.21 105.34-26.42C105.62-27.22 106.20-27.72 106.92-28.15C107.14-28.22 107.21-28.44 107.28-28.66C107.42-29.23 107.57-29.74 107.64-30.31L108-29.16L108-29.09C107.93-28.73 108.07-28.66 108.29-28.58L108.50-27.79C108.22-27.86 107.93-27.86 107.71-27.79C106.42-27.43 105.77-26.64 105.62-25.20C104.69-25.92 103.75-25.70 102.89-25.34C101.95-24.98 101.09-24.34 100.37-23.62C99.07-22.25 99.07-21.10 100.44-19.66C100.80-19.30 100.87-18.86 100.73-18.36C100.37-17.21 100.58-16.13 100.94-15.05C101.52-13.03 103.54-11.66 105.55-12.89C105.98-13.18 106.27-13.10 106.49-12.67C106.78-11.88 107.35-11.52 108-11.38L107.35-9.50C107.06-9.14 106.70-9.07 106.20-9.22C105.62-9.36 105.48-9.79 105.84-10.22C105.91-10.30 105.98-10.37 106.06-10.30C106.20-10.30 106.27-10.22 106.20-10.08C106.06-9.72 106.06-9.50 106.49-9.43C106.99-9.43 107.21-9.72 107.21-10.22C107.21-10.80 106.78-11.16 105.91-11.16C105.48-11.09 104.98-10.94 104.69-10.51C104.26-10.08 104.33-9.79 104.83-9.43C105.12-9.29 105.41-9.14 105.62-8.93C106.13-8.57 106.56-8.50 107.06-8.86ZM99.65-52.13C98.86-52.42 98.06-52.63 97.20-52.92C96.48-53.21 95.98-53.78 95.62-54.43C95.40-54.79 95.40-55.08 95.62-55.37C95.62-55.37 95.69-55.37 95.69-55.44L98.50-55.44ZM128.66-2.16L128.81-2.38C129.24-2.88 129.24-3.31 129.02-3.89C128.81-4.46 128.52-4.97 128.16-5.47C128.38-6.19 128.52-6.98 128.52-7.78L128.52-8.50C128.74-8.64 129.02-8.78 129.31-8.86C129.89-8.93 130.18-9.22 130.10-9.79C130.10-10.44 130.10-11.16 129.38-11.52C128.95-11.74 128.74-11.59 128.66-11.09C128.66-10.73 128.59-10.44 128.52-10.22L128.52-12.38C128.95-12.24 129.38-12.10 129.89-12.02C131.47-11.74 132.91-12.24 134.28-12.89C136.37-13.82 137.88-17.14 136.87-19.51C136.58-20.23 136.15-20.88 135.43-21.24C134.50-21.67 133.56-21.82 132.62-21.46C131.98-21.17 131.69-20.66 131.83-20.16C131.98-19.58 132.48-19.73 132.84-19.80C133.70-19.94 133.99-18.94 133.70-18.22C133.34-17.42 132.77-16.92 131.90-16.85C130.54-16.63 129.38-16.99 128.52-18.00L128.52-25.63C128.88-26.21 129.38-26.86 129.96-27.36C130.39-27.79 130.82-28.15 131.33-28.58C130.90-28.87 130.61-28.66 130.32-28.51C129.67-28.30 129.10-27.94 128.52-27.65L128.52-28.58L130.25-29.23C131.26-29.59 131.83-30.10 132.05-31.25C131.33-31.25 130.68-31.32 130.10-31.61C129.67-31.97 129.38-31.90 129.10-31.46C128.95-31.18 128.74-30.89 128.52-30.67L128.52-31.61C128.88-32.04 129.10-32.54 129.02-33.26C128.81-34.49 129.24-35.42 130.18-36.29C130.39-36.50 130.61-36.65 130.68-37.01C130.97-37.87 131.26-38.74 131.33-39.60C131.47-41.33 130.97-42.84 129.82-44.14C129.38-44.57 128.95-44.86 128.52-45.07L128.52-45.72L128.59-45.72C128.74-45.65 128.88-45.65 129.10-45.58C129.31-45.50 129.60-45.58 129.53-45.94C129.53-46.44 129.17-46.73 128.74-46.80L128.52-46.80L128.52-47.23L128.66-47.23C129.53-47.23 129.60-47.23 129.38-48.02C128.95-49.90 129.31-51.48 130.75-52.70C131.33-53.28 131.40-53.86 131.11-54.50C130.97-54.86 130.82-55.15 130.61-55.44L131.47-55.44C131.62-55.22 131.76-55.01 131.83-54.72C131.90-54.50 131.90-54.22 132.26-54.00C133.56-54.65 135-54.86 136.58-54.79L136.37-55.44L138.89-55.44C138.96-55.22 139.03-55.01 139.32-54.86C139.46-55.01 139.54-55.22 139.68-55.44L143.93-55.44C142.42-54.65 141.48-53.21 141.48-51.41C141.48-51.19 141.48-50.98 141.55-50.69C141.55-50.26 141.26-50.11 140.83-50.11C140.54-50.11 140.33-50.26 140.11-50.40C139.32-50.98 138.38-51.19 137.45-51.19C136.80-51.19 136.15-51.05 135.58-51.05C134.42-50.90 133.63-50.26 133.06-49.32C132.55-48.60 132.48-47.95 132.98-47.23C133.92-45.72 135.29-44.71 136.87-44.06C138.53-43.34 140.33-42.84 142.06-42.41C142.34-42.34 142.63-42.26 142.92-42.26L142.92-38.95C142.70-38.88 142.56-38.66 142.49-38.23C142.42-37.87 142.63-37.51 142.92-37.22L142.92-36.50C142.20-36.58 141.48-36.65 140.83-36.22C140.26-35.93 139.54-35.78 138.89-35.78C138.74-35.78 138.60-35.71 138.53-35.42L139.75-35.06C140.47-34.78 141.26-34.42 141.48-33.62C141.70-32.83 142.06-32.83 142.63-32.98L142.92-32.98L142.92-32.47C142.56-32.47 142.27-32.33 141.98-32.18C141.55-31.90 141.77-31.39 141.70-30.89L142.92-30.67L142.92-30.10L142.70-30.10C142.06-30.24 141.48-30.31 140.98-29.66C140.18-28.73 139.25-28.73 138.17-29.38C137.88-29.59 137.59-29.95 137.16-29.88C137.02-29.45 137.02-29.02 136.80-28.66C136.37-27.94 136.51-27.29 136.80-26.64C137.09-25.78 137.59-25.06 138.10-24.41C138.53-23.98 138.89-23.76 139.54-23.90C140.33-24.19 141.19-24.19 142.06-23.76C142.34-23.54 142.63-23.33 142.92-23.04L142.92-19.94C142.78-20.16 142.78-20.45 142.85-20.88C142.85-21.02 142.92-21.10 142.92-21.24C142.92-21.60 142.78-21.89 142.56-22.25C141.91-23.40 140.54-23.76 139.18-23.11C138.60-22.82 138.17-22.75 137.59-23.18C136.94-23.69 135.94-23.54 135.29-23.04C135.14-22.82 134.86-22.61 135.07-22.32C135.29-22.03 135.58-21.82 135.94-21.96C136.08-21.96 136.22-22.10 136.37-22.18C136.87-22.68 137.30-22.54 137.81-22.18C138.02-21.96 138.17-21.60 138.53-21.60L139.39-22.10C140.40-22.68 141.05-22.54 141.70-21.60C142.06-21.02 142.27-20.45 142.13-19.80C142.06-19.51 141.84-19.15 141.98-18.79C142.27-18.79 142.56-18.86 142.92-18.86L142.92-18.14C142.13-18.14 141.34-17.86 140.90-17.35C140.62-17.06 140.76-16.78 140.83-16.49C140.90-16.20 141.12-16.20 141.41-16.27C141.70-16.27 141.98-16.34 142.56-16.06C141.98-16.06 141.62-15.98 141.34-15.91C140.98-15.84 140.33-14.98 140.47-14.69C140.62-14.18 141.05-14.18 141.41-14.18C141.91-14.11 142.42-14.11 142.92-14.26L142.92-13.75C142.63-13.68 142.27-13.61 141.98-13.61C142.42-12.82 142.56-12.02 142.42-11.16C142.34-10.15 141.77-9.43 140.90-9.14C139.90-8.86 139.10-9.22 138.46-9.94C138.24-10.15 138.24-10.51 137.88-10.66C136.37-9.50 134.93-9.36 133.78-12.02C133.27-11.66 133.20-11.16 133.34-10.58C133.63-8.71 135.72-7.78 137.38-8.86C138.10-9.36 138.10-9.36 138.67-8.71C139.54-7.63 140.62-7.34 141.70-8.14C142.20-8.42 142.56-8.86 142.92-9.29L142.92-8.35C142.42-7.85 141.91-7.49 141.26-7.13C141.62-6.70 141.48-5.90 142.06-5.76C142.56-5.69 142.92-5.47 143.28-5.26C143.71-4.03 144.43-3.02 145.30-2.16L144.29-2.16C144.36-2.59 144.22-2.66 143.57-2.66C143.57-2.95 143.78-3.10 143.86-3.31C143.86-3.46 143.93-3.60 143.78-3.67C143.50-3.89 143.35-3.67 143.28-3.53C143.06-3.10 142.85-2.59 142.70-2.16L142.42-2.16C142.49-2.74 142.70-3.31 143.06-3.89C143.35-4.39 143.06-4.68 142.63-4.90C142.42-5.04 142.06-5.04 141.98-5.04C141.12-5.04 140.40-4.90 139.82-4.46C139.39-4.25 139.54-3.60 139.32-3.24C139.18-3.10 139.18-2.88 139.10-2.66C138.96-2.52 138.89-2.30 138.89-2.16L138.38-2.16C138.60-2.74 138.89-3.31 139.03-3.96C138.60-3.96 138.38-3.60 138.10-3.38C137.66-3.10 137.38-2.59 136.87-2.30C136.51-2.16 136.30-2.02 135.94-2.45C135.50-3.02 135.36-2.95 135-2.30C134.93-2.23 134.93-2.16 134.93-2.16L134.57-2.16C134.64-2.45 134.86-2.81 135-3.17C134.78-3.31 134.64-3.38 134.42-3.46C132.41-3.96 131.76-3.96 131.62-2.16L130.90-2.16C130.97-2.30 131.04-2.38 131.26-2.52C131.40-2.66 131.47-2.81 131.33-3.02C130.46-2.74 129.82-2.45 129.38-2.16ZM128.52-51.98L128.52-55.44L128.74-55.44C128.88-55.15 128.95-54.79 129.02-54.43C129.17-53.50 128.95-52.63 128.52-51.98ZM83.09-54.79L83.02-55.15L83.09-55.08C83.16-54.94 83.16-54.86 83.09-54.79ZM142.92-44.57C142.85-44.57 142.85-44.57 142.78-44.64C142.06-44.78 141.34-45.00 140.62-45.22C139.97-45.43 139.46-45.79 138.96-46.30C138.24-46.87 138.10-47.66 138.46-48.46C138.82-49.10 139.68-49.46 140.54-49.25L140.62-49.25C141.12-49.10 141.62-48.60 142.06-48.82C142.42-49.10 142.49-49.68 142.70-50.18L142.92-50.47ZM85.03-49.61L84.89-50.04C85.03-49.97 85.03-49.82 85.03-49.61ZM96.91-44.86C97.13-44.71 97.34-44.57 97.63-44.86C97.85-45.00 97.99-45.22 97.85-45.58C97.70-45.79 97.49-46.01 97.63-46.37C97.92-46.15 97.85-45.72 98.21-45.72C98.42-45.79 98.57-46.01 98.57-46.30C98.57-46.51 98.57-46.66 98.86-46.51C99.07-46.44 99.22-46.58 99.36-46.73C99.79-47.38 99.14-48.60 98.35-48.67C97.56-48.74 96.62-48.10 96.34-47.16C95.98-46.37 96.26-45.36 96.91-44.86ZM128.52-48.10L128.52-48.46C128.52-48.46 128.52-48.38 128.59-48.38C128.59-48.17 128.59-48.10 128.52-48.10ZM90.50-45.22C90.07-45.14 89.78-45.36 89.86-45.79C89.86-46.22 90.07-46.51 90.50-46.51C91.01-46.58 91.30-46.37 91.37-45.94C91.37-45.58 90.94-45.22 90.50-45.22ZM131.33-43.63C131.47-44.42 130.97-44.71 130.61-45.14C130.46-45.29 130.32-45.36 130.18-45.22C129.96-45.07 130.03-44.93 130.18-44.71C130.54-44.35 130.90-43.99 131.33-43.63ZM95.18-39.67C95.76-39.38 96.34-39.46 96.84-39.74C97.27-40.03 97.34-40.25 97.13-40.61C96.77-41.26 96.55-41.83 96.91-42.55C97.06-42.91 97.27-43.27 96.98-43.70C95.54-43.27 94.68-42.26 94.68-40.97C94.68-40.46 94.61-39.96 95.18-39.67ZM132.19-41.11C132.62-41.18 132.84-41.40 133.06-41.69C133.20-41.98 133.34-42.26 133.13-42.62C132.91-43.06 132.55-43.20 132.19-43.13C131.76-43.13 131.54-42.98 131.69-42.55C131.83-42.05 131.98-41.62 132.19-41.11ZM133.13-38.02C133.49-37.73 133.49-38.16 133.63-38.38C134.21-39.31 134.93-39.82 136.08-39.74C136.22-39.74 136.37-39.67 136.51-39.74C136.94-39.82 137.16-40.18 137.30-40.54C137.38-40.97 136.94-40.97 136.66-41.11L133.85-42.34C133.85-42.19 133.78-42.12 133.70-42.05C133.42-41.47 133.06-41.04 133.63-40.39C133.99-39.96 133.92-39.17 133.27-38.74C133.06-38.52 132.70-38.30 133.13-38.02ZM132.05-38.66C132.55-38.59 132.84-38.88 133.13-39.24C133.49-39.53 133.42-39.96 133.20-40.25C132.91-40.68 132.19-40.61 132.12-40.25C132.05-39.74 131.76-39.17 132.05-38.66ZM138.96-36.36C139.39-36.14 139.82-36.43 140.33-36.58C140.47-36.65 140.62-36.65 140.76-36.72C141.91-37.01 141.91-37.01 141.98-38.23C141.98-38.45 142.06-38.74 142.06-38.88C142.20-39.17 142.13-39.38 141.84-39.53C140.76-39.96 139.61-40.25 138.46-40.46C138.02-40.54 137.74-40.18 137.45-39.82C137.23-39.46 137.59-39.31 137.74-39.10C138.17-38.66 138.46-38.16 138.60-37.58C138.74-37.15 138.38-36.58 138.96-36.36ZM99.50-35.35C99.58-35.28 99.72-35.35 99.79-35.42C100.30-35.93 100.87-36.43 100.73-37.30C100.73-37.66 100.51-37.73 100.30-37.58C100.01-37.44 99.86-37.30 99.72-37.80C99.72-38.02 99.29-38.23 98.93-38.02C98.71-37.94 98.71-37.94 98.71-38.16C98.64-38.74 98.06-38.81 97.78-39.31C96.77-38.02 96.77-37.30 97.70-36.43C98.21-36.00 98.93-35.86 99.50-35.35ZM136.08-34.85C136.58-34.34 137.09-34.49 137.52-35.06C138.10-35.64 137.88-36.43 137.95-37.15C138.10-37.66 137.74-38.16 137.30-38.59C137.09-38.81 136.87-38.95 136.51-39.02C135.58-39.31 134.64-38.88 134.14-38.02C133.70-37.22 133.92-35.57 134.42-35.06C134.64-34.85 134.93-34.92 134.93-35.21C135-35.42 135-35.71 135-36.07C135.07-35.42 135.72-35.21 136.08-34.85ZM132.19-36.65C132.70-36.65 132.91-36.79 132.91-37.08C132.91-37.51 132.55-37.94 132.12-37.94C131.62-37.94 131.54-37.51 131.54-37.15C131.47-36.58 131.90-36.72 132.19-36.65ZM90.65-34.34L90.43-35.06C90.50-35.06 90.58-35.06 90.65-34.99L90.86-34.99C91.01-34.99 91.15-34.92 91.22-35.14C91.30-35.28 91.30-35.42 91.15-35.57C90.79-35.93 90.43-36.14 90-36.22L89.78-36.79C90.58-36.72 91.51-36.36 91.80-35.78C92.09-35.35 92.23-34.92 91.87-34.42C91.51-33.91 91.08-34.06 90.65-34.34ZM106.49-33.41C105.55-34.13 104.90-35.06 105.12-36.29C105.19-36.50 105.19-36.65 105.26-36.79ZM130.10-32.47C130.90-31.46 132.77-31.61 133.42-32.83C132.98-33.12 132.41-32.76 131.98-33.12C132.26-33.41 132.70-32.90 132.98-33.34C132.70-33.77 132.05-33.91 132.19-34.63C132.41-34.34 132.62-34.06 132.91-33.84C133.06-33.77 133.20-33.62 133.42-33.77C133.99-34.13 133.99-34.99 133.42-35.42C133.27-35.57 132.98-35.64 132.84-35.71C131.90-36.22 130.75-36.07 130.10-35.35C129.38-34.56 129.38-33.41 130.10-32.47ZM138.96-29.59C139.68-29.30 140.18-29.45 140.62-30.17C141.26-31.25 141.26-32.40 140.76-33.55C140.40-34.34 139.61-34.70 138.74-34.63C138.02-34.63 137.52-34.27 137.30-33.55C137.59-33.34 137.81-33.34 138.02-33.34C138.24-33.34 138.53-33.34 138.60-33.05C138.24-32.90 137.81-33.12 137.38-32.90C137.52-32.33 138.10-32.62 138.46-32.11C138.17-32.18 138.02-32.18 137.81-32.18C137.09-32.26 136.80-31.97 137.16-31.25C137.52-30.46 138.17-29.95 138.96-29.59ZM135.29-31.82C136.08-31.82 136.58-32.33 136.58-33.05C136.58-33.77 136.08-34.34 135.36-34.34C134.78-34.34 134.06-33.70 134.06-33.12C134.06-32.40 134.64-31.75 135.29-31.82ZM134.71-27.29C136.15-28.01 136.73-29.38 136.30-30.89C136.22-31.18 136.15-31.39 135.79-31.32C135.58-31.25 135.50-31.03 135.43-30.82C135.36-30.46 135.43-30.10 135.22-29.74C134.93-30.17 135.07-30.46 135.14-30.82C135.14-31.03 135-31.18 134.78-31.18C134.57-31.25 134.50-31.10 134.50-30.89L134.35-30.31C134.28-30.74 134.28-30.96 134.21-31.10C134.06-31.61 133.85-31.75 133.42-31.54C132.55-31.03 131.90-29.59 132.12-28.58C132.34-27.50 133.78-26.78 134.71-27.29ZM131.04-20.74C131.62-21.89 132.55-22.32 133.78-22.32C133.99-22.32 134.14-22.39 134.28-22.61C134.86-23.90 135.94-24.19 137.38-24.19C136.73-25.20 136.22-26.14 135.94-27.50C134.71-26.35 133.56-26.21 132.34-27.22C131.98-27.50 131.69-27.14 131.54-26.86C130.61-25.70 130.25-24.34 130.18-22.82C130.18-22.03 130.46-21.38 131.04-20.74ZM108.43-12.67C107.86-12.89 107.35-13.39 106.92-14.54C106.92-14.62 106.85-14.62 106.85-14.69C106.63-14.54 106.34-14.40 106.13-14.33C104.76-13.75 103.25-13.97 102.31-14.98C101.38-16.06 101.38-17.28 102.02-18.43C102.38-19.15 102.17-19.44 101.81-19.94C100.37-21.82 101.38-24.19 103.75-24.48C104.18-24.55 104.62-24.55 105.05-24.48C105.48-24.34 105.84-24.48 106.06-24.91C106.34-25.70 106.99-26.06 107.78-26.21C108.43-26.42 108.86-26.14 109.30-25.70L109.80-24.34C109.30-23.11 109.44-21.60 110.30-20.59C110.52-20.30 110.81-20.09 111.10-19.80L110.81-19.15C109.94-19.87 109.30-20.74 108.72-21.67C107.64-20.81 107.42-19.66 108.07-18.79C108.72-18.07 109.51-17.78 110.38-18.00L110.16-17.42C110.02-17.35 109.94-17.06 109.87-16.92C109.87-16.85 109.80-16.92 109.73-16.92C109.37-17.42 109.22-17.06 109.01-16.78C108.72-16.34 108.43-15.91 108-15.62C107.57-15.26 107.57-14.90 107.71-14.40C107.93-13.90 108.29-13.54 108.72-13.32ZM107.28-21.89C107.50-21.82 107.86-21.82 107.86-21.89C107.78-22.39 108.72-22.54 108.29-23.18C108.14-23.33 108.07-23.54 108.29-23.76C108.58-23.54 108.43-23.04 108.72-22.82C109.08-23.33 109.08-23.90 109.15-24.41C109.15-25.27 108.43-25.78 107.57-25.49C106.78-25.27 106.34-24.70 106.27-23.90C106.27-23.11 106.63-22.39 107.28-21.89ZM94.18-24.84L94.10-24.98C94.18-25.06 94.32-25.13 94.39-25.13ZM131.76-23.54C131.47-23.62 131.33-23.83 131.26-24.12C131.18-24.55 131.47-24.91 131.90-24.91C132.26-24.91 132.55-24.84 132.55-24.41C132.62-24.12 132.12-23.62 131.76-23.54ZM106.56-19.37C106.78-19.51 107.06-19.66 106.99-20.02C106.85-20.30 106.56-20.23 106.34-20.23C105.77-20.30 105.12-20.09 104.54-20.45C105.12-20.52 105.77-20.38 106.42-20.59C105.84-21.24 104.98-21.46 104.62-22.25C105.05-22.03 105.41-21.74 105.77-21.53C106.20-21.17 106.63-21.02 107.28-21.02C106.56-21.82 105.98-22.54 105.77-23.47C105.70-23.69 105.48-23.76 105.34-23.83C104.26-24.26 102.89-23.90 102.17-22.90C101.52-22.03 101.66-21.02 102.60-20.09L103.25-19.44C104.33-18.72 105.48-18.72 106.56-19.37ZM139.97-17.93C140.18-17.71 140.33-17.78 140.47-17.93C141.26-18.58 141.70-20.16 141.26-21.02C141.05-21.67 140.54-21.89 139.90-21.60C138.82-21.24 138.24-20.09 138.53-19.01C138.67-18.58 138.96-18.50 139.25-18.43C139.61-18.29 139.68-18.58 139.82-18.79C140.04-19.08 140.04-19.44 140.54-19.58C140.47-19.01 140.11-18.72 139.90-18.29C139.82-18.14 139.82-18.00 139.97-17.93ZM99.86-15.98C99.94-16.92 99.79-17.78 100.15-18.58C100.22-18.72 100.22-18.94 100.08-19.01C99.14-19.51 99.07-20.45 98.57-21.24C98.28-21.10 97.99-21.02 97.78-20.88C97.42-20.74 97.49-20.59 97.63-20.23C97.99-19.15 98.50-18.07 98.28-16.92C98.21-16.70 98.06-16.49 98.28-16.20C98.78-16.20 99.29-16.13 99.86-15.98ZM130.82-17.50C131.04-17.28 131.40-17.28 131.62-17.50C131.98-17.93 132.48-18.29 132.48-19.01C131.76-18.94 131.76-18.29 131.33-18.07C131.11-18.43 131.83-18.65 131.47-19.15C131.04-18.94 130.97-18.43 130.75-18.07C130.68-17.93 130.54-17.64 130.82-17.50ZM103.32-15.05C105.12-13.82 107.71-15.12 108.07-17.35C108.07-17.35 108-17.42 108-17.50C107.64-17.50 107.71-16.99 107.42-16.92C107.50-17.78 107.50-17.78 106.78-17.64C106.85-17.93 107.21-18.07 107.06-18.43C106.63-18.14 106.20-18.65 105.77-18.58C104.98-18.36 104.18-18.36 103.46-18.65C103.10-18.72 102.89-18.65 102.67-18.36C101.95-17.21 102.24-15.77 103.32-15.05ZM138.10-13.75C138.67-13.75 139.18-14.11 139.61-14.62C140.47-15.55 140.11-17.21 138.96-17.78C138.31-18.07 137.95-18.00 137.88-17.28C137.66-16.34 137.38-15.41 136.87-14.54C136.73-14.18 136.80-13.97 137.16-13.82C137.45-13.82 137.74-13.75 138.10-13.75ZM141.12-9.79C141.70-10.30 141.98-11.52 141.70-12.46C141.55-13.10 140.69-13.75 139.97-13.82C139.10-13.90 138.17-13.03 138.24-12.24C138.24-11.38 138.46-10.66 138.96-10.08C139.46-9.50 140.54-9.36 141.12-9.79ZM135.94-10.51C136.44-10.44 136.87-10.58 137.16-11.16C137.38-11.52 137.59-11.95 137.59-12.46C137.52-12.89 137.59-13.46 136.87-12.82C136.66-12.60 136.73-12.89 136.66-13.03C136.58-13.75 136.44-13.82 135.86-13.39L135.36-12.96C134.57-12.46 134.42-12.10 134.86-11.23C135.07-10.80 135.43-10.51 135.94-10.51ZM132.91-8.06C133.56-8.78 133.56-8.78 133.20-9.36C132.98-9.72 132.91-10.15 132.84-10.51C132.70-11.59 132.70-11.59 131.69-11.52C131.47-11.52 131.33-11.45 131.11-11.45C130.61-11.45 130.46-11.30 130.54-10.80C130.61-9.72 130.90-8.93 132.05-8.64C132.34-8.50 132.62-8.28 132.91-8.06ZM138.10-4.39C138.96-4.82 139.75-5.33 140.69-5.62C141.05-5.69 140.98-5.90 140.90-6.26C140.76-6.62 140.47-6.98 140.11-7.06C139.03-7.13 138.46-7.85 137.88-8.57C137.52-8.28 137.16-8.06 136.80-7.85C138.17-6.70 138.17-6.70 138.10-4.39ZM105.91-5.69C104.90-6.62 103.75-7.34 102.46-7.63C101.81-7.78 101.16-7.78 100.51-7.63L100.30-8.28C101.38-8.57 102.46-8.42 103.61-7.99C104.54-7.56 105.41-7.13 106.20-6.41ZM130.90-4.10L132.41-4.32C132.70-4.39 132.91-4.54 132.98-4.82C133.56-6.48 132.19-8.35 130.46-8.28C130.32-7.85 130.61-7.56 130.75-7.20C130.82-6.98 131.04-6.84 130.90-6.55C130.68-5.76 130.90-4.97 130.90-4.10ZM136.22-3.82C136.73-3.67 137.16-3.89 137.45-4.32C137.74-5.04 138.02-5.76 137.59-6.48C137.23-7.13 136.58-7.42 135.79-7.34C135.50-7.34 135.22-7.34 134.93-7.27C134.06-6.98 133.63-7.13 133.78-5.76L133.78-5.04C133.63-4.39 133.92-4.18 134.64-4.18C134.57-5.54 134.86-5.98 135.65-6.19C136.15-6.34 136.37-6.12 136.51-5.69C136.58-5.54 136.58-5.26 136.37-5.18C136.08-5.11 136.15-5.40 136.08-5.54C136.01-5.90 135.72-5.90 135.43-5.76C135-5.47 134.93-5.11 135.07-4.61C135.29-4.10 135.72-3.89 136.22-3.82ZM105.48-4.46C104.33-5.54 102.89-5.76 101.38-5.33L101.23-5.76C102.67-6.12 104.40-5.83 105.62-4.82ZM102.74-2.16C102.89-2.66 103.18-3.02 103.61-3.38C104.11-3.74 104.62-3.53 105.05-3.31L104.90-3.02C104.54-3.17 104.18-3.17 103.75-2.88C103.46-2.74 103.25-2.45 103.18-2.16ZM126.14-2.16C126.29-2.23 126.36-2.38 126.50-2.52C126.58-2.38 126.65-2.23 126.72-2.16Z" style="pointer-events: bounding-box; cursor: move;"></path></svg></g>
      </g>
  </svg>